<?xml version="1.0" standalone="no"?>
<!DOCTYPE svg PUBLIC "-//W3C//DTD SVG 20010904//EN"
 "http://www.w3.org/TR/2001/REC-SVG-20010904/DTD/svg10.dtd">
<svg version="1.0" xmlns="http://www.w3.org/2000/svg"
 width="2199.000000pt" height="2758.000000pt" viewBox="0 0 2199.000000 2758.000000"
 preserveAspectRatio="xMidYMid meet">

<g transform="translate(0.000000,2758.000000) scale(0.100000,-0.100000)"
fill="#000000" stroke="none">
<path d="M10160 24749 c-1116 -38 -2193 -163 -3060 -355 -1696 -377 -2660
-985 -2775 -1751 -26 -171 -30 -158 96 -333 115 -160 232 -330 227 -330 -2 0
-32 10 -68 21 -84 27 -261 36 -367 19 -176 -28 -383 -125 -546 -254 -14 -10
-29 -66 -58 -208 -210 -1019 -319 -1564 -319 -1595 0 -34 1 -35 18 -20 58 52
237 109 404 127 325 34 865 -28 1333 -155 273 -74 305 -79 495 -79 203 -1 278
14 459 88 154 63 260 118 486 252 436 257 726 362 1289 465 l125 23 -1 30 c0
18 -94 233 -229 525 -126 272 -228 496 -226 497 6 7 318 67 532 103 689 116
1310 179 2175 223 325 16 1384 16 1710 0 758 -38 1423 -106 2015 -207 209 -35
584 -111 592 -119 3 -3 -99 -229 -226 -503 -127 -274 -227 -499 -221 -501 6
-2 6 -10 0 -22 -9 -17 -6 -20 27 -26 507 -87 857 -194 1148 -348 55 -29 174
-97 265 -151 188 -112 404 -219 532 -264 140 -49 228 -64 378 -64 152 0 239
13 460 73 427 114 819 173 1160 172 187 0 281 -9 400 -38 71 -18 203 -75 214
-93 13 -20 26 -11 26 18 0 24 -134 691 -309 1540 -28 134 -56 250 -62 258 -22
26 -188 131 -261 166 -93 44 -219 84 -311 98 -95 15 -254 6 -344 -20 -40 -12
-75 -21 -78 -21 -8 0 85 181 151 296 31 54 99 161 150 236 69 101 94 146 94
169 0 99 -98 320 -204 460 -670 884 -2918 1496 -5881 1599 -317 11 -1078 11
-1415 -1z m1305 -108 l90 -6 -160 -132 -160 -133 -123 0 c-74 0 -122 4 -120
10 2 5 48 68 103 140 l100 130 90 -1 c49 -1 131 -4 180 -8z m-135 -1226 l0
-845 -165 0 -165 0 0 845 0 845 165 0 165 0 0 -845z m855 805 c197 -50 318
-179 345 -365 10 -70 14 -238 6 -246 -3 -2 -74 2 -160 10 l-155 15 -3 132 c-3
115 -6 136 -24 160 -42 57 -69 69 -154 69 -69 0 -81 -3 -104 -24 -15 -14 -31
-41 -37 -60 -6 -24 -9 -215 -7 -548 3 -502 3 -512 24 -540 37 -50 81 -68 161
-68 69 0 74 2 105 33 l33 32 3 165 c2 91 5 165 7 165 28 0 301 -33 308 -37 6
-4 8 -70 5 -167 -5 -135 -9 -171 -28 -220 -30 -80 -93 -146 -173 -182 -55 -25
-76 -28 -188 -32 -281 -9 -466 73 -552 247 l-32 66 0 580 c0 575 0 580 22 627
50 108 161 187 290 208 79 12 217 3 308 -20z m-1895 -701 l0 -720 103 5 c56 3
180 8 275 12 l172 6 0 -126 0 -126 -167 0 c-154 0 -368 -9 -616 -26 l-97 -7 2
844 3 844 80 6 c44 3 117 6 163 7 l82 2 0 -721z m-752 626 c75 -34 151 -111
178 -182 17 -44 19 -92 22 -570 3 -560 0 -598 -49 -695 -33 -65 -125 -150
-200 -186 -151 -72 -403 -100 -530 -58 -123 40 -199 132 -220 267 -6 42 -9
254 -7 565 4 488 4 500 26 559 83 222 293 338 597 332 107 -3 127 -6 183 -32z
m3390 -21 l132 -18 0 -844 0 -845 -32 6 c-18 3 -93 13 -165 22 l-133 18 0 845
0 844 33 -5 c17 -3 92 -14 165 -23z m862 -151 c91 -18 177 -36 193 -40 15 -3
27 -9 27 -14 0 -4 74 -396 165 -870 91 -474 164 -868 163 -874 -3 -13 -301 53
-317 70 -5 6 -21 82 -35 170 -15 87 -29 161 -31 163 -2 3 -86 22 -185 42 -127
27 -182 35 -185 27 -2 -7 -16 -78 -30 -159 -15 -82 -29 -148 -31 -148 -9 0
-299 52 -301 54 -3 2 302 1464 328 1578 13 55 -17 55 239 1z m-5383 -23 c63
-28 116 -81 144 -144 20 -45 24 -71 27 -216 5 -190 -5 -259 -49 -348 -70 -143
-206 -230 -447 -285 l-142 -32 0 -342 c0 -317 -1 -342 -17 -347 -10 -3 -76
-19 -148 -36 -71 -17 -138 -33 -147 -36 -17 -5 -18 39 -18 839 l0 845 168 40
c143 35 301 69 392 86 56 10 190 -3 237 -24z"/>
<path d="M9160 23908 c-24 -13 -53 -36 -64 -51 -21 -28 -21 -41 -24 -560 -2
-511 -1 -533 17 -563 53 -87 242 -60 295 41 21 39 21 52 21 555 0 490 -1 517
-19 547 -25 41 -54 53 -124 53 -40 0 -71 -7 -102 -22z"/>
<path d="M13767 23660 c-10 -25 -140 -771 -135 -775 4 -5 282 -65 284 -62 1 1
-31 193 -71 427 -40 234 -75 418 -78 410z"/>
<path d="M8020 23701 l-75 -17 -3 -258 -2 -258 22 5 c13 3 58 13 101 22 82 18
127 43 161 88 19 25 21 45 24 174 4 169 -1 207 -33 239 -29 29 -83 31 -195 5z"/>
<path d="M11865 20812 l-107 -181 -87 -27 c-47 -14 -124 -37 -171 -51 -47 -14
-88 -29 -93 -33 -6 -5 51 -55 243 -210 18 -15 18 -21 -20 -194 -22 -99 -38
-182 -35 -184 2 -3 89 29 192 71 l187 77 186 -84 c102 -46 186 -81 188 -76 2
4 -18 89 -43 188 -25 100 -45 183 -45 185 0 2 60 57 134 123 74 65 131 122
128 126 -4 3 -59 20 -122 38 -63 17 -138 38 -166 46 l-52 15 -92 159 c-50 87
-98 166 -105 176 -11 16 -25 -3 -120 -164z"/>
<path d="M10942 20793 c-5 -10 -173 -421 -372 -913 -199 -492 -505 -1248 -680
-1680 -175 -432 -326 -804 -335 -827 -12 -30 -32 -52 -75 -82 l-59 -42 -383
-20 -382 -20 -18 23 c-44 56 -168 245 -168 256 0 27 -92 193 -140 252 -27 35
-104 114 -170 176 -153 144 -182 154 -345 115 -216 -53 -384 -129 -491 -223
-110 -97 -223 -224 -493 -556 -46 -56 -86 -101 -88 -99 -2 3 0 40 6 83 5 44
13 131 16 194 8 135 13 147 142 344 198 303 449 590 618 706 120 82 795 181
961 141 97 -23 301 -94 407 -141 148 -66 228 -115 329 -204 124 -108 152 -101
78 21 -22 37 -40 77 -40 89 0 43 -40 152 -79 211 -81 125 -206 222 -376 292
-44 18 -81 34 -83 36 -1 1 19 10 45 20 66 24 277 143 403 228 328 218 580 482
615 645 5 24 3 32 -7 32 -8 0 -95 -51 -194 -113 l-179 -113 -283 -58 c-156
-32 -285 -56 -288 -54 -2 3 17 20 44 39 141 101 470 415 696 663 97 107 106
120 92 134 -14 14 -24 12 -103 -26 -118 -55 -196 -79 -330 -102 -138 -23 -223
-48 -360 -106 -324 -135 -640 -370 -938 -694 -66 -72 -74 -78 -54 -42 13 23
99 125 191 225 138 150 167 187 168 212 0 54 29 209 55 299 39 133 90 266 161
416 92 193 81 203 -82 73 -134 -107 -324 -296 -426 -423 -266 -332 -453 -737
-507 -1097 -12 -81 -14 -278 -2 -308 7 -16 -5 -28 -73 -74 -45 -30 -107 -74
-138 -98 -31 -23 -61 -43 -67 -43 -6 0 -11 -4 -11 -8 0 -5 -30 -33 -66 -62
-36 -30 -119 -107 -184 -172 l-117 -118 -7 142 c-10 215 -36 481 -49 497 -9
10 -34 12 -112 8 -124 -6 -212 -33 -296 -90 -74 -50 -106 -101 -143 -228 -25
-86 -63 -316 -54 -325 3 -2 52 18 110 45 159 74 142 77 162 -36 27 -158 44
-298 55 -448 15 -212 22 -360 17 -354 -3 2 -16 101 -30 219 -17 137 -32 227
-43 248 -10 19 -38 48 -63 65 -134 91 -422 316 -468 365 -62 66 -126 191 -167
325 -23 72 -31 87 -48 87 -20 0 -20 -4 -14 -135 20 -405 105 -841 202 -1035
20 -39 32 -50 86 -74 138 -62 185 -87 209 -109 53 -48 53 -50 20 -111 -16 -31
-35 -83 -41 -115 l-13 -59 -115 -6 c-256 -14 -301 -18 -301 -30 0 -6 -35 22
-77 63 -73 70 -222 187 -252 199 -34 13 -40 -63 -16 -204 81 -466 365 -1055
704 -1457 128 -152 124 -145 124 -190 0 -23 3 -44 7 -47 16 -11 80 -270 74
-300 -5 -23 -3 -30 9 -30 10 0 29 -42 61 -135 25 -75 46 -138 46 -140 0 -15
-28 1 -88 51 -70 58 -293 174 -413 214 -71 24 -201 37 -273 26 -57 -9 -95 -40
-169 -139 -109 -145 -264 -430 -367 -675 -41 -96 -42 -104 -27 -119 16 -16 24
-10 119 83 182 178 359 314 484 371 48 22 82 29 180 36 l120 9 81 -32 c138
-52 341 -190 530 -359 94 -84 105 -98 165 -208 34 -65 64 -121 66 -125 2 -4
-33 15 -77 41 -197 119 -469 193 -711 194 -98 1 -124 -3 -175 -23 -170 -66
-289 -196 -353 -385 -25 -75 -27 -91 -26 -245 1 -160 27 -399 80 -742 15 -98
19 -108 38 -108 18 0 24 12 43 94 72 308 283 684 424 756 20 11 39 23 41 28 1
5 60 17 129 25 177 23 282 10 527 -63 107 -32 352 -124 416 -157 29 -15 113
-111 103 -118 -1 -2 -42 6 -92 17 -49 10 -140 22 -201 25 l-110 6 -106 -164
c-188 -293 -214 -364 -204 -564 12 -239 43 -312 196 -465 132 -132 275 -229
522 -354 168 -85 437 -200 446 -191 3 2 -22 35 -55 72 -167 191 -307 418 -376
610 -30 82 -57 216 -57 278 l0 42 108 12 c59 7 182 20 274 30 l168 17 27 -29
c39 -40 157 -128 224 -166 l56 -31 -130 -497 c-71 -274 -132 -501 -136 -505
-4 -4 -48 8 -99 27 -122 46 -167 46 -260 0 -112 -56 -179 -148 -208 -284 -15
-74 -18 -147 -6 -155 12 -7 74 11 97 28 17 12 18 17 7 41 -11 23 -10 30 4 46
23 26 160 94 227 114 51 15 182 24 192 13 3 -2 -27 -123 -65 -268 -67 -258
-70 -279 -37 -280 6 0 297 385 727 965 411 554 785 1053 798 1065 22 22 19 17
-698 -949 -360 -485 -688 -928 -729 -983 -65 -88 -72 -101 -59 -114 13 -13 80
25 559 317 881 537 949 579 949 575 0 -3 -48 -44 -107 -92 -167 -136 -314
-288 -348 -358 -52 -107 -34 -227 55 -365 82 -126 273 -302 440 -406 81 -49
132 -64 155 -45 13 11 8 20 -32 64 -156 173 -160 408 -11 769 22 53 44 97 48
97 3 0 12 -15 18 -32 6 -18 30 -87 53 -153 41 -118 42 -123 49 -295 5 -151 9
-182 29 -227 28 -63 97 -131 172 -168 88 -44 89 -37 -24 -149 -130 -128 -187
-212 -187 -272 0 -59 28 -129 106 -264 36 -63 77 -137 90 -163 24 -47 69 -234
62 -261 -2 -11 -42 -5 -194 29 -882 199 -1638 517 -2218 933 -270 195 -591
494 -780 727 l-97 120 144 70 c171 83 208 109 237 171 21 43 22 53 15 192 -8
164 -23 225 -79 325 -116 208 -363 456 -523 524 -52 22 -301 83 -340 83 -43 0
-68 -34 -88 -123 -17 -77 -35 -112 -363 -712 -297 -543 -400 -723 -434 -757
-16 -16 -17 -22 -7 -34 7 -8 18 -13 24 -10 16 6 37 -17 186 -204 376 -472 762
-858 1195 -1196 816 -636 1792 -1105 2877 -1384 l148 -39 97 78 c169 136 357
333 475 497 20 29 69 112 107 185 65 121 79 141 168 228 54 53 110 111 125
129 22 26 34 32 67 32 22 0 40 3 40 6 0 9 -139 194 -193 257 -27 32 -78 78
-113 103 -35 25 -63 48 -62 52 1 4 -7 25 -17 47 -32 73 -18 191 40 334 64 158
201 402 333 595 34 49 59 93 56 97 -3 5 -31 9 -62 10 l-57 0 35 13 c82 30 87
29 115 -12 30 -46 72 -72 144 -88 51 -12 58 -11 108 11 63 29 64 29 57 10 -4
-9 1 -18 11 -22 13 -4 24 2 37 20 17 23 27 27 70 27 39 0 54 -5 67 -21 15 -19
18 -19 30 -6 11 14 18 14 63 1 27 -9 56 -13 63 -10 8 3 33 34 57 69 33 49 47
62 58 56 8 -5 42 -17 75 -26 l60 -18 -60 -5 c-41 -3 -59 -9 -57 -18 1 -7 30
-53 63 -103 157 -233 294 -491 345 -649 31 -98 37 -199 15 -273 -12 -40 -23
-54 -76 -91 -34 -25 -93 -82 -131 -128 -69 -81 -174 -223 -174 -233 0 -3 14
-5 30 -5 20 0 30 -5 30 -15 0 -19 142 -168 185 -195 25 -15 49 -51 96 -142 80
-155 136 -240 231 -353 133 -158 427 -435 462 -435 21 0 226 53 421 110 1430
413 2648 1164 3545 2185 58 66 179 211 268 322 127 158 168 202 184 200 30 -3
32 16 5 49 -42 51 -235 395 -593 1056 -147 272 -185 350 -198 409 -19 84 -45
119 -89 119 -58 0 -292 -62 -363 -97 -232 -112 -529 -467 -563 -673 -17 -102
-23 -284 -11 -329 18 -69 77 -118 238 -200 78 -39 142 -74 142 -77 0 -3 -37
-51 -82 -107 -115 -144 -429 -453 -588 -580 -567 -452 -1277 -789 -2118 -1008
-214 -56 -454 -110 -460 -104 -2 2 10 61 28 131 28 118 36 138 105 250 95 154
125 220 132 288 5 50 3 58 -33 112 -22 33 -87 108 -146 168 -122 124 -121 112
-11 167 73 37 136 100 166 167 17 39 22 75 27 222 6 138 12 189 28 241 l22 66
64 -14 c387 -79 673 -102 815 -65 l74 19 281 -186 c446 -297 424 -284 440
-259 6 10 -51 101 -193 307 -111 162 -200 295 -198 297 2 2 93 -127 202 -286
110 -160 205 -290 212 -290 8 0 16 7 19 15 3 8 -30 179 -75 381 l-81 366 28
22 c110 85 378 347 484 471 52 62 55 63 138 84 111 29 227 87 320 162 121 97
324 293 395 382 131 162 287 411 406 649 65 129 149 315 149 329 0 5 -12 9
-27 9 -38 0 -334 -50 -358 -61 -11 -4 -58 -22 -104 -39 -76 -27 -154 -66 -220
-109 l-24 -15 27 40 c67 102 54 230 -33 315 l-47 45 155 53 c176 59 305 114
389 163 166 98 416 430 548 729 64 147 166 455 213 649 46 192 76 348 68 357
-9 9 -314 -115 -372 -151 -112 -70 -180 -120 -246 -183 -54 -52 -79 -69 -86
-62 -8 8 -14 6 -22 -9 -6 -10 -8 -22 -5 -25 5 -5 -42 -38 -92 -65 -21 -11 -22
-10 -17 51 5 57 -4 94 -34 148 -2 3 13 11 34 17 194 59 205 339 16 419 -18 7
-58 13 -89 13 l-56 0 16 23 c122 165 26 369 -172 370 -51 0 -53 1 -35 17 10
10 227 197 483 415 256 219 466 402 467 409 11 47 50 59 -2591 -833 -254 -86
-328 -107 -305 -87 2 2 166 57 364 124 198 66 817 274 1375 462 558 188 1040
350 1070 360 40 13 56 23 58 38 4 26 -10 28 -298 43 -129 7 -237 13 -239 15
-2 2 9 17 23 35 45 53 75 123 90 211 35 202 30 328 -19 515 -47 178 -167 466
-192 461 -26 -6 -200 -163 -251 -227 -28 -35 -63 -92 -79 -127 -19 -43 -34
-64 -45 -64 -10 0 -18 -4 -18 -10 0 -5 -6 -10 -14 -10 -7 0 -23 26 -34 58 -34
91 -90 177 -180 275 -46 50 -94 99 -107 109 l-23 18 -31 -48 c-17 -27 -55 -95
-84 -151 l-54 -102 -12 30 c-7 16 -21 37 -30 45 -17 16 -16 18 15 52 96 101
70 278 -49 348 -52 31 -119 42 -168 28 l-36 -9 53 117 c65 145 109 283 130
402 24 140 8 213 -70 321 -29 39 -33 52 -26 71 7 19 5 25 -9 29 -11 3 -23 26
-35 68 -29 105 -99 215 -238 373 l-35 40 -83 -125 c-46 -68 -112 -183 -147
-255 l-65 -131 -116 47 c-104 42 -213 77 -337 109 -32 8 -65 36 -162 133
l-122 123 -12 75 c-17 112 6 270 40 270 44 0 112 34 150 75 97 106 73 272 -52
349 -40 25 -59 30 -110 30 -206 -1 -310 -239 -166 -383 23 -22 59 -46 80 -53
33 -9 38 -14 33 -32 -18 -55 -24 -98 -24 -181 l0 -90 -111 111 -110 110 31 52
c98 156 -4 346 -185 346 -98 0 -164 -44 -206 -138 -36 -83 -15 -185 52 -247
l29 -27 -37 -7 c-125 -23 -198 -118 -191 -247 3 -55 9 -75 33 -110 35 -51 120
-98 175 -98 l37 0 -19 -57 c-60 -177 100 -336 283 -282 86 26 149 114 149 209
0 117 -77 204 -200 226 l-45 8 45 8 c49 10 167 4 295 -14 l80 -11 71 -69 71
-68 6 -133 c6 -154 27 -258 69 -344 30 -62 32 -100 3 -89 -8 3 -17 1 -20 -3
-3 -5 -38 1 -78 14 -40 13 -104 26 -143 30 -72 7 -323 -11 -337 -24 -11 -10
42 -152 108 -289 107 -222 217 -362 385 -487 184 -137 269 -156 534 -117 106
16 119 16 123 2 19 -56 51 -106 85 -130 42 -31 118 -51 159 -43 24 4 26 2 25
-31 -1 -42 1 -42 -120 -20 -48 8 -90 13 -92 11 -7 -6 16 -215 31 -290 8 -40
34 -110 58 -157 23 -47 41 -92 40 -100 -1 -8 7 -20 17 -27 11 -8 23 -36 30
-71 6 -31 15 -73 20 -91 5 -19 8 -36 6 -38 -2 -2 -375 19 -1471 83 l-290 17
-71 52 -70 52 -462 1139 c-253 627 -565 1396 -692 1709 -126 314 -234 580
-239 592 -7 15 -16 20 -30 16 l-21 -5 -3 -1512 -2 -1511 -3 1518 c-2 1500 -2
1517 -22 1517 -10 0 -23 -8 -28 -17z m769 -1756 c362 -892 656 -1624 653
-1626 -2 -3 -73 30 -157 71 -355 177 -652 261 -1018 290 l-149 11 0 1445 c0
795 3 1442 7 1439 4 -4 302 -737 664 -1630z m1526 726 c-2 -1 -32 2 -67 7 -36
5 -110 10 -165 10 l-100 0 3 54 c5 69 -27 146 -77 186 l-36 30 35 0 c19 1 49
7 65 14 l30 14 157 -156 c87 -86 156 -157 155 -159z m-5503 -835 c-109 -122
-199 -218 -205 -218 -16 0 -17 32 -2 57 13 23 228 203 241 203 3 0 -13 -19
-34 -42z m3541 -1249 c839 -86 1596 -611 1982 -1374 123 -243 207 -505 248
-770 22 -141 30 -463 16 -610 -103 -1028 -823 -1892 -1817 -2180 -229 -67
-440 -95 -704 -95 -206 0 -322 11 -500 46 -307 60 -629 197 -919 389 -144 96
-224 159 -344 275 -391 375 -641 848 -738 1395 -30 171 -38 518 -15 705 70
570 321 1085 726 1490 209 210 423 362 685 490 428 209 891 289 1380 239z
m-3297 -90 c144 -134 375 -309 482 -364 19 -10 31 -20 25 -21 -17 -5 -1234
-66 -1252 -62 -37 7 201 284 326 379 73 55 186 113 247 128 82 19 91 16 172
-60z m1274 -483 c-272 -285 -528 -675 -644 -983 -17 -47 -27 -61 -38 -57 -15
5 -2387 825 -2630 909 l-125 43 45 6 c25 3 234 15 465 26 476 22 2058 102
2570 129 187 10 364 19 394 20 l53 1 -90 -94z m-2127 -586 c770 -266 1402
-485 1404 -487 2 -1 2 -5 0 -7 -7 -7 -2812 963 -2824 976 -7 8 -5 9 5 6 8 -3
645 -222 1415 -488z m9115 346 c-14 -13 -592 -509 -1285 -1101 -693 -593
-1286 -1101 -1318 -1128 l-59 -50 6 34 c13 81 17 136 26 339 15 336 -9 594
-81 873 -17 65 -29 120 -26 123 2 2 332 115 733 250 401 135 1019 344 1374
464 355 120 647 219 650 219 2 1 -7 -10 -20 -23z m-10274 -170 l97 -84 1 -242
c2 -227 1 -237 -10 -158 -25 168 -75 331 -150 481 -24 48 -42 87 -39 87 2 0
48 -38 101 -84z m408 -354 c2 -4 -3 -41 -13 -82 l-17 -75 -7 64 c-4 35 -7 77
-7 93 0 25 2 27 19 18 11 -5 22 -14 25 -18z m8874 -419 c-12 -45 -3 -108 23
-157 11 -21 19 -39 17 -40 -2 -1 -25 -10 -51 -20 -26 -10 -61 -29 -77 -42 -35
-30 -80 -118 -80 -158 l0 -31 -52 54 -52 54 -26 -31 c-40 -49 -146 -223 -201
-332 l-51 -100 -71 64 c-40 35 -87 77 -106 93 l-34 29 379 326 c209 180 382
327 386 327 3 1 2 -15 -4 -36z m-8036 -314 c112 -97 437 -380 723 -629 l520
-452 43 -129 43 -128 -206 -788 c-113 -433 -211 -792 -216 -798 -7 -7 -18 0
-32 20 -58 80 -125 152 -193 207 -41 33 -74 63 -74 66 0 3 10 16 22 29 l21 23
-35 0 c-49 0 -95 39 -104 88 -4 22 -20 52 -39 72 -49 51 -97 221 -136 475 -23
147 -35 491 -22 620 7 70 11 80 26 77 12 -2 20 4 24 16 15 58 227 20 416 -74
52 -27 87 -39 87 -31 0 24 -66 173 -108 244 -145 246 -364 420 -615 489 -102
27 -290 44 -301 26 -13 -22 -23 -307 -15 -454 10 -185 39 -362 85 -521 19 -65
34 -120 34 -122 0 -1 -11 -2 -25 -2 -22 0 -35 17 -95 121 -43 74 -68 127 -64
138 3 11 -3 22 -16 30 -52 31 -285 568 -374 861 l-27 87 31 92 c59 176 161
343 269 440 48 44 128 91 143 85 4 -1 99 -81 210 -178z m8316 35 c-10 -10 -21
-13 -29 -8 -12 7 0 14 41 23 2 1 -3 -6 -12 -15z m-201 -408 c1 -1 -4 -20 -12
-41 -8 -22 -15 -49 -15 -60 -1 -11 -9 2 -20 30 -11 28 -24 58 -30 68 -11 18
-8 19 32 12 24 -4 44 -8 45 -9z m-1148 -309 c1 -33 10 -104 22 -160 11 -56 18
-110 15 -120 -3 -11 2 -30 11 -44 13 -20 15 -43 10 -133 -5 -89 -3 -122 13
-183 34 -135 134 -303 270 -458 l58 -65 -33 -33 c-53 -51 -75 -109 -75 -194
l0 -72 -88 -88 c-82 -82 -121 -105 -86 -52 14 22 14 24 -5 35 -18 9 -21 20
-21 74 0 34 -9 96 -21 137 -11 41 -23 89 -26 107 -3 17 -8 32 -12 32 -4 0 -31
47 -60 103 -30 57 -61 114 -71 127 l-18 23 -77 -69 c-95 -85 -226 -230 -313
-347 l-66 -88 -84 378 -83 378 43 134 43 133 320 274 c355 304 332 292 334
171z m1250 -9 c14 -6 45 -14 69 -17 l42 -6 -35 -49 c-45 -64 -43 -63 -55 -32
-6 15 -30 53 -54 84 -63 83 -79 117 -31 69 20 -21 49 -43 64 -49z m-6781 -890
c159 -324 369 -596 642 -832 58 -50 105 -95 104 -101 -1 -6 -88 -127 -194
-270 -1193 -1603 -1515 -2033 -1518 -2030 -3 3 138 546 618 2380 99 380 199
763 222 853 23 89 42 162 44 162 1 0 38 -73 82 -162z m-1447 -195 c16 -37 27
-68 25 -70 -5 -6 -76 106 -76 120 0 16 11 29 18 22 3 -3 18 -35 33 -72z m7856
-65 c-3 -7 -5 -2 -5 12 0 14 2 19 5 13 2 -7 2 -19 0 -25z m26 -639 l42 -1 -50
-14 c-65 -18 -65 -18 -65 7 0 15 4 19 16 15 9 -3 34 -6 57 -7z m-5653 -83 c0
-2 -8 -10 -17 -17 -16 -13 -17 -12 -4 4 13 16 21 21 21 13z m3218 -227 c79
-116 142 -213 140 -215 -2 -2 -34 41 -70 94 -36 53 -103 150 -147 215 -45 64
-78 117 -74 117 5 -1 72 -96 151 -211z m-3270 159 c-14 -18 -64 -86 -113 -150
-48 -65 -90 -118 -92 -118 -3 0 6 15 19 33 14 17 64 85 113 150 48 64 90 117
92 117 3 0 -6 -15 -19 -32z m3896 -1167 c449 -654 816 -1192 816 -1195 0 -3
-89 53 -197 125 -586 388 -2023 1337 -2353 1554 -208 138 -380 252 -380 255 0
3 69 16 153 28 301 46 525 108 755 211 114 51 277 139 342 185 19 14 38 25 42
26 3 0 373 -535 822 -1189z m-1881 531 c998 -660 962 -635 965 -673 l3 -34
-123 -2 c-68 -1 -192 -6 -276 -11 -179 -10 -163 -1 -281 -158 -117 -154 -175
-223 -188 -223 -16 -1 -17 11 -1 27 19 19 -2 28 -91 41 -181 27 -284 33 -471
28 -266 -8 -397 -37 -423 -94 -5 -12 -14 -23 -18 -23 -11 0 -144 161 -230 277
-38 51 -79 97 -91 104 -13 7 -93 16 -178 21 -85 5 -196 12 -247 16 l-91 7 69
83 70 82 52 0 c124 0 456 -49 544 -80 47 -16 55 -17 68 -4 19 20 19 67 -1 135
-31 107 -118 226 -202 280 l-43 27 308 188 c169 103 317 192 328 198 13 7 61
10 120 8 l100 -4 328 -216z m-5325 -27 c79 -20 164 -46 190 -59 170 -86 403
-333 493 -521 42 -86 59 -157 59 -241 l0 -52 -63 -7 c-186 -20 -367 83 -449
254 -18 38 -35 70 -38 70 -3 1 -14 -14 -25 -31 -10 -18 -38 -64 -62 -101 l-44
-69 -46 94 c-63 131 -124 280 -177 441 -43 127 -46 141 -35 180 14 54 27 77
42 77 7 0 76 -16 155 -35z m-194 -265 c167 -511 475 -1011 871 -1419 774 -795
1885 -1299 3400 -1542 110 -18 204 -35 209 -40 8 -7 -57 -77 -154 -166 -20
-18 -59 -79 -90 -139 -71 -140 -129 -228 -222 -339 -137 -164 -432 -440 -461
-430 -6 2 -68 18 -136 35 -564 142 -1234 399 -1744 671 -925 492 -1623 1071
-2280 1894 -66 83 -135 166 -153 185 l-34 36 25 36 c56 83 349 610 655 1180
41 76 77 135 80 130 4 -4 19 -45 34 -92z m7399 -142 c25 -38 43 -68 39 -68 -9
1 -112 152 -112 165 0 5 6 1 13 -10 7 -11 34 -50 60 -87z m-6984 -287 c99
-154 270 -240 454 -228 l77 5 0 -26 c0 -49 -20 -101 -52 -132 -31 -32 -84 -61
-245 -135 l-91 -43 -99 152 c-105 158 -173 276 -173 296 0 11 88 160 95 160 2
0 17 -22 34 -49z m3666 -41 c94 -6 178 -13 187 -16 9 -3 52 -53 96 -112 44
-59 114 -147 156 -197 l76 -89 -7 -56 c-3 -30 -7 -56 -8 -58 -2 -2 -34 16 -71
39 -38 23 -130 73 -204 111 -74 38 -141 74 -148 79 -11 9 -175 38 -218 39 -9
0 -28 -38 -21 -41 1 0 36 -6 77 -12 l74 -12 -46 -46 c-64 -63 -82 -126 -83
-284 0 -131 16 -187 69 -240 l25 -25 -54 0 c-48 0 -55 -3 -55 -19 0 -32 -24
-30 484 -35 40 0 61 -3 50 -8 -11 -4 -64 -24 -119 -44 -127 -46 -219 -95 -324
-173 -46 -34 -87 -60 -90 -59 -135 64 -216 132 -240 205 -7 21 -16 115 -21
208 -8 186 -13 209 -97 425 -42 108 -44 118 -33 155 33 111 119 221 205 262
41 20 60 23 110 18 33 -3 137 -10 230 -15z m1355 -301 c146 -21 184 -71 160
-210 -23 -136 -99 -321 -188 -462 -36 -56 -38 -58 -72 -51 -51 9 -52 11 -26
62 39 78 77 212 83 295 6 72 5 77 -14 77 -18 0 -22 -9 -28 -66 -9 -86 -37
-186 -77 -275 l-32 -71 -43 5 c-24 2 -46 7 -48 9 -2 2 8 33 22 68 15 36 29 91
31 123 4 53 3 57 -17 57 -16 0 -21 -6 -21 -28 0 -40 -28 -129 -57 -184 -18
-33 -33 -47 -52 -51 -14 -2 -33 -7 -42 -11 -14 -6 -18 4 -24 71 -18 199 -113
433 -150 372 -4 -6 7 -37 24 -69 17 -32 40 -93 51 -135 24 -95 42 -256 29
-270 -6 -6 -30 -5 -66 3 -82 17 -117 55 -148 157 -87 286 -95 319 -95 384 1
88 27 146 74 166 33 14 163 39 251 49 72 7 388 -2 475 -15z m1314 -64 c-26
-30 -49 -55 -51 -55 -17 0 76 108 95 110 2 0 -18 -25 -44 -55z m-2551 -4 c49
-21 273 -146 352 -197 l50 -32 37 -128 c21 -71 41 -143 44 -160 l6 -32 -118
-7 c-163 -10 -376 -1 -443 20 -74 23 -97 39 -121 90 -55 114 -20 386 54 414
13 6 27 19 31 30 8 27 48 28 108 2z m1927 -1 c6 -11 24 -27 39 -35 68 -35 101
-280 54 -395 -29 -72 -73 -97 -210 -121 -74 -12 -459 -8 -495 6 -16 6 -14 14
16 74 19 37 49 109 67 160 l32 92 111 66 c170 102 313 173 346 173 19 0 33 -7
40 -20z m-1500 -677 c0 -3 -35 -61 -78 -127 -217 -336 -333 -598 -336 -758
l-1 -77 -25 16 c-133 87 -308 175 -425 213 -87 28 -92 32 -100 81 -10 58 26
112 174 259 216 214 420 339 632 385 68 14 159 19 159 8z m-781 -814 c164 -70
341 -177 412 -248 26 -25 77 -73 114 -106 38 -33 99 -100 138 -150 l69 -90
-28 -6 c-63 -14 -143 -7 -376 32 -133 22 -244 42 -246 44 -2 2 -14 59 -27 127
-20 110 -29 134 -80 228 -31 58 -60 110 -64 115 -4 6 -20 32 -36 59 l-27 49
28 -7 c16 -4 71 -25 123 -47z"/>
<path d="M10855 17584 c-591 -46 -1104 -274 -1518 -674 -412 -396 -670 -924
-728 -1489 -25 -245 1 -603 61 -836 223 -861 897 -1533 1750 -1744 182 -45
302 -61 506 -68 855 -28 1627 371 2107 1090 151 227 287 555 341 829 35 172
46 291 46 483 0 283 -35 501 -121 762 -289 868 -1049 1498 -1964 1628 -102 15
-390 26 -480 19z m84 -231 c73 -238 103 -344 100 -348 -2 -1 -22 -5 -44 -7
-38 -3 -40 -1 -51 32 -11 32 -15 35 -56 38 l-45 3 -9 -43 c-9 -42 -10 -43 -51
-46 -34 -2 -43 0 -43 12 0 9 16 113 35 232 19 118 35 217 35 220 0 2 22 4 50
4 l49 0 30 -97z m469 71 c66 -14 82 -20 78 -33 -2 -9 -7 -28 -10 -42 -5 -25
-8 -26 -51 -19 -51 8 -49 9 -63 -42 l-10 -37 36 -6 c61 -10 63 -12 56 -42 -11
-53 -11 -53 -58 -47 -50 7 -50 7 -59 -57 l-5 -36 51 -9 c52 -9 52 -9 49 -44
-2 -19 -7 -39 -12 -44 -4 -4 -49 -2 -99 4 -67 10 -91 17 -91 27 0 17 69 399
76 426 6 21 9 21 112 1z m-753 -227 c29 -120 49 -220 45 -222 -4 -2 -25 -7
-47 -11 l-39 -6 -18 84 c-10 47 -21 90 -25 96 -7 11 -101 -4 -101 -16 0 -4 9
-44 20 -90 11 -46 20 -87 20 -91 0 -11 -73 -32 -81 -23 -6 7 -78 298 -97 394
l-10 48 37 10 c20 5 41 10 47 10 6 0 18 -36 28 -80 9 -44 19 -80 22 -80 3 0
25 5 50 11 34 9 43 15 40 28 -5 17 -20 79 -30 123 -5 23 -3 27 21 31 67 11 62
20 118 -216z m-475 -82 c77 -173 81 -178 130 -150 14 8 30 14 36 15 10 0 48
-69 42 -76 -2 -1 -43 -21 -91 -43 l-87 -40 -19 42 c-95 211 -161 361 -161 371
0 10 52 43 71 45 3 1 39 -73 79 -164z m1765 151 c39 -17 40 -19 24 -65 -13
-35 -10 -35 -58 -20 -56 17 -102 -6 -131 -66 -48 -99 -34 -182 35 -205 40 -13
39 -12 23 -57 -15 -42 -47 -43 -103 -5 -60 41 -87 101 -82 182 11 175 157 292
292 236z m-1993 -223 c56 -60 131 -135 166 -169 l63 -60 -41 -28 -41 -27 -25
31 -26 30 -38 -21 -39 -22 14 -35 c17 -40 16 -44 -30 -71 -26 -15 -37 -17 -40
-8 -8 20 -145 431 -145 434 0 3 73 53 77 53 2 0 49 -48 105 -107z m2288 57
c76 -39 90 -128 38 -242 -71 -154 -180 -214 -283 -155 -49 28 -65 57 -65 123
0 66 14 106 63 177 75 107 161 141 247 97z m-2580 -186 c41 -35 62 -77 54
-109 -6 -23 -3 -25 27 -25 19 0 44 -8 56 -18 27 -22 63 -81 63 -105 0 -35 -40
-94 -96 -142 l-57 -49 -21 25 c-11 14 -69 84 -127 155 -59 71 -116 138 -128
148 -11 11 -21 22 -21 25 0 4 23 25 51 46 106 82 147 92 199 49z m1694 -24
c233 -50 440 -137 636 -267 145 -97 355 -302 452 -443 225 -326 328 -674 315
-1060 -14 -407 -148 -756 -408 -1067 -151 -179 -337 -325 -554 -433 -151 -75
-265 -116 -415 -148 -738 -159 -1483 164 -1875 813 -268 444 -319 1027 -131
1514 225 583 746 1006 1361 1106 138 22 488 14 619 -15z m1199 -31 c5 -3 -17
-67 -48 -140 -32 -74 -60 -141 -63 -149 -3 -8 12 5 32 30 52 61 156 170 164
170 9 0 52 -43 52 -53 0 -7 -62 -76 -260 -288 l-45 -49 -33 28 -33 28 61 149
61 150 -103 -108 -103 -107 -29 24 c-20 17 -26 28 -20 39 5 8 76 86 158 172
l149 156 26 -23 c14 -12 30 -26 34 -29z m-3076 -305 c103 -52 192 -100 198
-105 6 -6 -2 -21 -21 -40 -31 -30 -32 -31 -62 -15 -17 9 -33 16 -35 16 -3 0
-17 -16 -32 -36 l-27 -36 28 -29 28 -29 -25 -27 c-14 -16 -38 -49 -53 -75 -15
-27 -30 -48 -34 -48 -4 0 -45 7 -92 14 -47 8 -86 13 -88 11 -2 -2 31 -22 72
-46 l75 -43 -21 -38 c-13 -23 -27 -37 -35 -33 -21 7 -367 205 -377 215 -11 11
59 124 97 156 35 29 58 30 114 3 50 -24 83 -62 83 -95 0 -12 4 -25 10 -29 12
-8 177 -28 191 -23 6 2 -17 40 -52 83 -115 144 -209 268 -209 276 0 14 52 69
65 69 7 0 98 -43 202 -96z m3381 -38 c29 -41 52 -76 52 -78 0 -2 -14 -15 -32
-28 l-31 -23 -37 43 -37 43 -33 -30 -34 -31 27 -35 27 -35 -32 -27 c-35 -30
-36 -30 -78 34 l-15 22 -45 -33 c-25 -17 -60 -45 -79 -61 l-33 -28 -26 37 -25
37 25 21 c29 25 221 167 287 213 25 18 51 32 57 33 6 0 34 -33 62 -74z m139
-214 l22 -39 -52 -31 c-29 -17 -99 -56 -156 -87 -57 -31 -120 -67 -140 -80
-19 -14 -41 -25 -46 -25 -6 0 -19 17 -29 37 -17 36 -17 38 1 51 39 29 361 212
373 212 3 0 15 -17 27 -38z m-4042 -198 c37 -15 39 -21 21 -65 -5 -12 14 -24
91 -57 54 -23 129 -53 166 -66 38 -14 72 -28 77 -31 11 -7 -21 -85 -35 -85 -6
0 -82 29 -169 65 -87 36 -162 65 -166 65 -4 0 -13 -13 -20 -30 -7 -16 -14 -30
-17 -30 -4 0 -65 30 -71 35 -3 3 78 215 83 215 1 0 19 -7 40 -16z m4169 -64
c9 -22 16 -44 16 -49 0 -11 -369 -271 -384 -271 -3 0 -11 19 -18 41 -11 39
-10 43 10 60 12 9 27 19 34 21 7 3 4 19 -10 50 l-20 46 -38 -8 c-21 -5 -39 -8
-40 -7 -1 1 -9 19 -18 40 -11 29 -12 39 -3 42 10 3 406 69 443 74 7 0 19 -17
28 -39z m-4110 -642 c34 -49 7 -108 -49 -108 -58 0 -86 69 -45 110 27 27 75
26 94 -2z m4119 -30 c26 -35 15 -77 -27 -97 -25 -12 -31 -11 -55 6 -34 26 -38
62 -10 97 27 34 64 32 92 -6z m17 -510 c112 -38 157 -92 147 -176 -9 -86 -70
-132 -172 -132 -64 0 -163 26 -212 55 -35 21 -83 90 -83 120 0 140 136 196
320 133z m-3971 -45 c17 -64 33 -144 29 -148 -1 -2 -20 -6 -40 -10 -36 -7 -37
-6 -47 32 -6 21 -11 44 -11 51 0 8 -7 11 -17 8 -10 -3 -30 -8 -45 -12 -32 -7
-32 -6 -17 -58 12 -45 3 -56 -48 -56 -29 0 -32 3 -38 41 l-7 41 -47 -7 c-25
-4 -49 -10 -53 -13 -4 -4 -2 -26 4 -50 12 -50 7 -57 -43 -65 l-37 -5 -17 89
c-10 49 -14 93 -11 97 9 8 382 100 413 101 18 1 24 -7 32 -36z m26 -195 c30
-14 65 -75 65 -114 0 -15 25 -73 55 -130 58 -108 58 -107 5 -130 -22 -10 -27
-8 -40 17 l-15 29 -168 -83 -168 -83 -20 39 c-11 21 -19 40 -17 42 2 1 71 37
153 78 193 98 181 89 161 118 -15 23 -15 25 6 40 l22 17 -27 -5 c-24 -5 -27
-2 -27 20 0 14 -8 35 -18 47 -26 32 -67 13 -92 -43 -27 -61 -58 -97 -96 -113
-77 -32 -145 -8 -176 63 -27 62 -19 87 34 106 l43 14 -3 -42 c-4 -47 13 -69
50 -63 16 2 32 19 53 59 17 32 39 67 50 79 40 46 117 62 170 38z m3675 -29 c0
-4 -4 -19 -9 -32 -9 -24 -6 -26 107 -69 64 -25 141 -53 170 -62 55 -19 58 -24
41 -75 -8 -23 -16 -31 -28 -28 -9 3 -77 28 -151 55 -187 69 -186 68 -199 32
l-10 -31 -41 21 c-22 11 -40 22 -40 25 0 2 14 39 31 82 17 43 35 88 40 100 8
21 9 21 49 6 22 -9 40 -20 40 -24z m22 -286 c96 -54 183 -103 193 -109 16 -10
17 -15 5 -43 -7 -17 -16 -33 -20 -36 -7 -4 -250 20 -298 31 -15 3 30 -25 100
-63 70 -38 130 -72 134 -75 3 -4 -4 -23 -16 -43 l-22 -35 -26 19 c-15 10 -103
60 -197 111 -93 52 -172 95 -173 96 -7 4 8 39 26 60 l17 22 110 -19 c193 -32
198 -28 58 47 l-122 65 21 34 c11 19 24 35 28 35 4 0 86 -44 182 -97z m-3458
-120 l24 -38 -161 -162 c-89 -90 -167 -163 -173 -163 -6 0 -19 16 -30 35 l-18
34 28 30 c29 30 28 38 -8 84 -13 17 -17 17 -50 3 l-35 -15 -22 35 c-13 22 -18
39 -12 45 11 11 391 147 415 148 10 1 28 -15 42 -36z m3308 -178 c111 -52 203
-97 205 -99 5 -5 -9 -31 -31 -59 -13 -17 -16 -17 -45 -3 -41 22 -45 21 -76
-20 l-27 -36 26 -27 c14 -15 26 -31 26 -36 0 -11 -41 -55 -51 -55 -4 0 -67 73
-140 163 -73 89 -139 170 -147 179 -13 16 -12 21 12 53 15 19 31 35 36 35 6 0
101 -43 212 -95z m-3210 38 c43 -46 65 -88 74 -142 5 -34 1 -49 -26 -97 l-32
-58 31 27 c60 50 138 60 192 23 102 -70 81 -208 -52 -330 -93 -87 -174 -97
-243 -30 -58 56 -60 140 -5 221 32 49 30 52 -13 21 -33 -23 -107 -34 -162 -24
-25 5 -51 24 -90 64 -31 31 -56 61 -56 67 0 6 30 36 68 68 37 31 112 95 167
142 55 47 102 85 105 85 3 0 22 -17 42 -37z m2922 -158 c-25 -15 -54 -44 -54
-55 0 -5 10 -18 22 -30 19 -17 33 -20 102 -18 71 3 85 0 114 -20 43 -31 75
-95 67 -133 -8 -36 -48 -85 -85 -104 -26 -13 -29 -12 -60 20 l-33 34 27 7 c26
6 56 38 56 59 -1 32 -20 40 -102 41 -46 0 -93 6 -106 13 -58 31 -92 78 -92
127 0 36 37 90 75 108 28 14 31 14 58 -12 26 -25 27 -28 11 -37z m-260 -206
c84 -23 206 -184 206 -272 0 -158 -164 -206 -285 -82 -27 28 -63 76 -80 106
-55 101 -33 209 49 245 38 16 60 17 110 3z m-2072 -142 c41 -31 63 -86 56
-143 l-4 -32 49 44 c44 39 55 44 97 44 57 0 107 -30 133 -80 34 -65 3 -217
-62 -307 -34 -47 -84 -73 -140 -73 -35 0 -49 7 -84 39 l-42 40 0 90 0 90 -29
-36 c-34 -41 -96 -72 -145 -73 -36 0 -160 56 -168 76 -3 7 43 101 102 208
l107 196 46 -27 c26 -15 64 -40 84 -56z m1837 4 l20 -39 -30 -12 -29 -13 85
-163 c47 -90 85 -166 85 -169 0 -2 -18 -14 -39 -25 l-40 -20 -19 33 c-11 17
-50 91 -87 164 l-68 132 -29 -15 c-17 -9 -31 -14 -32 -12 -2 2 -9 12 -15 23
-16 26 -14 20 68 -188 39 -98 71 -182 71 -187 0 -4 -12 -13 -27 -18 -16 -5
-35 -13 -44 -17 -14 -5 -21 7 -39 62 -13 37 -49 133 -82 213 -32 80 -55 146
-51 148 6 2 262 131 280 141 2 0 12 -17 22 -38z m-331 -157 c51 -36 71 -136
37 -188 -17 -26 -17 -27 21 -74 49 -59 94 -119 94 -126 0 -4 -94 -27 -96 -23
-5 11 -97 127 -103 131 -5 3 2 -29 15 -71 14 -47 20 -81 15 -86 -5 -5 -26 -10
-47 -11 l-37 -1 -43 154 c-24 85 -45 166 -48 180 -3 14 -9 41 -15 60 -6 19
-10 35 -8 36 1 1 25 8 52 17 66 21 135 22 163 2z m-840 -41 c29 -5 32 -9 32
-38 l0 -33 29 28 c37 38 73 46 119 28 34 -12 37 -17 40 -56 3 -39 -9 -55 -23
-32 -9 14 -58 13 -73 -2 -21 -21 -13 -53 19 -84 85 -80 107 -142 75 -218 -20
-49 -51 -66 -116 -66 -76 0 -94 15 -85 67 l6 41 36 -14 c31 -13 38 -13 59 1
35 22 30 40 -25 98 -56 59 -71 91 -71 147 0 38 -1 39 -45 46 -25 3 -48 5 -50
2 -2 -2 -7 -22 -11 -44 l-6 -41 42 -6 c23 -3 43 -7 44 -9 2 -1 1 -20 -2 -42
l-4 -38 -48 6 -48 6 -7 -46 c-3 -25 -4 -49 -1 -52 4 -3 25 -8 49 -11 40 -6 42
-7 45 -45 2 -21 0 -42 -5 -46 -7 -7 -181 15 -191 24 -3 4 56 412 64 435 4 13
53 11 152 -6z m580 0 c-2 -9 -18 -26 -37 -36 -27 -17 -34 -18 -42 -6 -16 25
-10 47 14 52 51 10 69 7 65 -10z m-134 -34 c15 -12 25 -27 23 -33 -3 -7 1 -23
9 -37 38 -68 -1 -150 -82 -170 l-43 -11 6 -94 6 -94 -45 0 -45 0 -11 138 c-7
75 -15 179 -18 230 l-7 92 90 0 c77 0 94 -3 117 -21z m156 -62 c0 -2 13 -69
30 -148 34 -162 36 -189 16 -189 -7 0 -27 -3 -43 -6 l-30 -6 -27 144 c-15 78
-28 150 -29 158 -1 8 14 22 33 32 34 17 50 21 50 15z"/>
<path d="M10860 17268 c0 -36 -3 -80 -6 -97 -6 -28 -4 -31 18 -31 14 0 27 2
30 5 6 6 -28 174 -36 183 -3 3 -6 -24 -6 -60z"/>
<path d="M9904 16945 c13 -33 26 -68 29 -77 4 -10 10 -18 15 -18 5 0 16 8 25
18 14 16 11 22 -39 77 l-53 60 23 -60z"/>
<path d="M12104 16993 c-19 -21 -49 -67 -66 -102 -30 -59 -31 -65 -17 -90 34
-61 107 -25 170 84 32 56 37 105 13 129 -26 27 -62 19 -100 -21z"/>
<path d="M9545 16836 c-18 -13 -18 -16 20 -61 l39 -48 18 23 c23 29 23 55 -2
80 -23 23 -49 25 -75 6z"/>
<path d="M9666 16695 c-21 -16 -19 -20 33 -77 23 -26 26 -27 43 -11 24 22 23
58 -4 83 -25 23 -46 25 -72 5z"/>
<path d="M10770 16845 c-495 -68 -950 -364 -1208 -787 -107 -174 -191 -394
-228 -593 -29 -152 -26 -471 5 -615 98 -463 344 -830 726 -1085 186 -125 376
-204 604 -252 112 -24 149 -27 326 -27 225 -1 340 16 528 78 474 156 861 519
1046 981 183 457 155 982 -76 1415 -84 156 -161 259 -303 401 -231 231 -475
371 -780 449 -190 48 -441 62 -640 35z m490 -102 c618 -100 1130 -570 1284
-1177 14 -55 24 -101 23 -103 -2 -1 -59 32 -128 74 -122 74 -126 78 -168 150
l-43 73 -129 68 -129 67 0 103 0 102 38 1 c33 0 35 2 18 12 -11 7 -30 22 -43
35 -13 12 -29 22 -35 22 -6 0 -69 35 -139 77 -118 71 -129 80 -130 108 l-1 30
-10 -30 c-8 -24 -44 -52 -176 -138 -124 -81 -162 -111 -151 -118 10 -6 4 -9
-21 -10 -19 0 -97 -10 -172 -22 l-137 -22 -46 -65 -46 -65 31 -3 30 -3 0 -88
0 -87 -68 -30 c-60 -25 -80 -41 -154 -124 -46 -52 -99 -104 -117 -115 -19 -11
-57 -42 -86 -68 -30 -27 -89 -73 -132 -103 l-78 -54 -17 39 c-21 51 -50 69
-129 82 -125 21 -271 71 -356 121 -45 26 -85 48 -90 48 -4 0 -48 -12 -98 -26
-89 -26 -91 -27 -168 -108 l-79 -81 7 50 c63 467 315 874 700 1131 341 227
740 313 1145 247z m560 -532 l135 -81 -275 0 -275 0 130 85 c72 47 135 83 140
81 6 -2 71 -40 145 -85z m110 -205 l0 -94 -65 20 c-94 28 -155 14 -235 -53
-33 -27 -62 -49 -65 -49 -3 0 -5 34 -5 75 l0 75 40 0 c39 0 40 1 40 35 0 33
-2 35 -33 35 -41 0 -49 7 -36 31 9 17 24 19 184 19 l175 0 0 -94z m-390 79 c0
-2 -12 -29 -26 -58 l-26 -54 -192 -12 c-105 -6 -222 -14 -260 -18 l-69 -6 30
44 31 44 223 31 c226 32 289 38 289 29z m-57 -335 c-25 -27 -33 -45 -33 -72 0
-59 -7 -68 -54 -68 -42 0 -50 5 -189 113 -31 25 -46 29 -106 30 l-71 2 0 31 0
31 98 1 c53 0 142 4 197 9 l100 8 3 38 3 39 -118 -8 c-65 -4 -121 -11 -124
-16 -9 -14 -159 1 -159 16 0 9 69 17 233 30 127 10 234 20 237 23 3 3 8 -35
11 -84 l6 -88 -34 -35z m-1654 -316 c78 -45 234 -97 365 -122 59 -12 96 -34
96 -59 0 -11 -77 -13 -436 -13 -414 0 -436 1 -423 17 8 10 43 53 78 96 62 74
67 78 135 98 39 11 76 22 81 24 20 7 27 4 104 -41z m420 -267 c-22 -18 -59
-99 -59 -129 0 -4 539 -9 1198 -10 l1197 -3 -2 -25 c-1 -14 -4 -46 -8 -72 l-6
-47 -315 6 -314 6 0 -31 0 -32 309 0 309 0 -10 -40 -10 -39 -172 5 c-94 2
-195 6 -223 9 -50 3 -53 2 -53 -19 0 -22 4 -23 122 -29 66 -4 163 -7 215 -7
75 0 93 -3 93 -15 0 -41 -110 -278 -183 -393 l-40 -64 -101 6 c-56 3 -164 8
-241 11 -77 3 -181 8 -231 11 l-91 6 5 44 c2 24 2 44 0 44 -3 0 -20 -23 -39
-51 l-34 -51 -300 5 c-379 7 -575 33 -575 78 0 12 -4 17 -11 14 -6 -4 -18 3
-26 15 l-16 23 -256 -6 c-237 -5 -253 -5 -218 10 28 11 37 21 37 39 0 21 -5
24 -39 24 -28 0 -41 -5 -43 -16 -2 -8 -30 -26 -62 -39 -69 -28 -81 -38 -73
-60 6 -14 38 -15 316 -9 302 7 310 7 305 -12 -3 -11 -28 -29 -60 -43 -38 -16
-54 -29 -54 -42 0 -18 -15 -19 -387 -19 l-388 0 -56 88 c-64 99 -113 192 -102
192 5 1 142 0 306 0 l297 -1 0 24 0 24 -182 6 c-99 4 -243 7 -319 7 l-138 0
-35 108 c-41 127 -64 235 -73 339 l-6 76 69 -6 c38 -4 117 -7 177 -7 59 0 107
-4 107 -9 0 -9 -23 -13 -185 -31 -104 -11 -145 -28 -145 -59 0 -17 21 -18 362
-25 199 -4 363 -8 365 -9 1 -2 -4 -21 -12 -42 l-13 -40 -286 4 -286 4 0 -42 0
-41 100 0 100 0 0 -30 c0 -26 4 -30 38 -37 53 -10 263 -10 287 1 26 12 21 11
87 20 31 4 62 14 69 22 17 20 95 18 427 -11 61 -5 62 -5 62 20 0 23 -4 25 -45
25 -43 0 -45 1 -45 30 l0 30 -130 0 c-123 0 -130 1 -130 20 0 19 -7 20 -90 20
-50 0 -90 4 -90 9 0 15 42 41 67 41 16 0 23 6 23 19 0 25 -71 31 -363 31 -226
0 -291 11 -139 24 44 3 102 13 129 21 48 14 93 49 80 62 -4 3 -138 11 -299 17
-233 9 -292 14 -296 25 -4 12 43 13 299 10 l304 -4 3 23 c3 22 6 22 135 22
l132 0 -26 -23z m-271 -414 c-10 -2 -26 -2 -35 0 -10 3 -2 5 17 5 19 0 27 -2
18 -5z m697 -483 c4 -6 -5 -10 -20 -10 -15 0 -24 4 -20 10 3 6 12 10 20 10 8
0 17 -4 20 -10z m311 -58 c6 -4 13 -14 16 -23 7 -18 69 -34 188 -48 47 -5 287
-12 534 -15 261 -2 452 -8 458 -14 9 -9 -130 -148 -176 -177 -17 -10 -84 -10
-333 -2 l-312 10 -3 41 -3 41 -25 -43 -25 -44 -340 6 c-243 3 -364 9 -425 20
-47 9 -86 16 -87 16 -2 0 -3 7 -3 16 0 9 -6 14 -14 11 -7 -3 -21 4 -30 15 -17
20 -25 20 -249 14 -212 -6 -229 -5 -199 9 23 10 32 20 30 32 -5 27 -56 29 -79
4 -28 -30 -53 -26 -88 14 -17 20 -31 38 -31 42 0 3 226 4 503 2 l502 -4 3 37
c3 36 2 37 -35 41 -21 2 18 4 87 5 69 1 130 -2 136 -6z m1101 -7 c165 -8 171
-9 160 -27 -11 -18 -22 -19 -177 -13 -91 4 -208 11 -260 16 -65 7 -96 6 -98
-1 -9 -25 -489 -7 -622 23 -47 11 11 12 385 12 242 -1 517 -5 612 -10z m-1678
-246 c6 -17 15 -28 20 -25 5 3 31 2 57 -3 129 -25 293 -32 814 -35 311 -3 580
-8 598 -12 l33 -7 -48 -34 c-72 -51 -266 -147 -370 -182 -188 -64 -264 -76
-513 -75 -168 0 -243 4 -295 16 l-70 16 198 1 197 1 0 24 c0 21 -6 24 -52 30
-29 3 -165 6 -303 6 l-250 0 -85 38 c-106 48 -200 105 -313 190 -59 45 -83 68
-75 74 7 4 110 8 230 8 l216 0 11 -31z"/>
<path d="M11660 16025 c0 -35 0 -35 45 -35 45 0 45 0 45 35 0 35 0 35 -45 35
-45 0 -45 0 -45 -35z"/>
<path d="M11790 16025 c0 -35 0 -35 45 -35 45 0 45 0 45 35 0 35 0 35 -45 35
-45 0 -45 0 -45 -35z"/>
<path d="M11170 14991 c0 -16 11 -19 92 -25 50 -3 158 -6 240 -6 l148 0 0 25
0 25 -240 0 c-227 0 -240 -1 -240 -19z"/>
<path d="M10936 14991 c-3 -5 -43 -7 -88 -4 -60 5 -79 3 -74 -5 12 -20 326
-11 326 9 0 12 -157 11 -164 0z"/>
<path d="M10700 13747 c0 -24 0 -24 167 -30 91 -4 235 -7 320 -7 l153 0 0 24
c0 20 -6 24 -46 30 -26 3 -170 6 -320 6 l-274 0 0 -23z"/>
<path d="M9380 16482 c35 -39 67 -72 70 -72 10 0 30 23 30 35 0 5 -21 22 -48
37 -26 15 -63 38 -82 50 -29 19 -25 11 30 -50z"/>
<path d="M9092 16288 c-20 -20 -14 -32 33 -61 53 -31 61 -33 69 -11 12 30 6
44 -26 64 -38 23 -59 25 -76 8z"/>
<path d="M12920 15968 c-41 -10 -78 -22 -82 -26 -4 -4 -1 -17 5 -28 12 -22 12
-22 77 17 115 69 115 68 0 37z"/>
<path d="M12936 14771 c-40 -44 -1 -90 101 -116 118 -31 177 -14 171 48 -4 45
-77 80 -178 85 -66 3 -77 1 -94 -17z"/>
<path d="M9250 14083 c-41 -19 -76 -36 -78 -38 -4 -4 21 -45 28 -45 3 0 34 27
70 60 36 33 63 60 60 59 -3 0 -39 -16 -80 -36z"/>
<path d="M12658 13933 c59 -71 69 -78 87 -63 26 22 17 34 -57 74 l-72 39 42
-50z"/>
<path d="M9400 13879 c-135 -115 -128 -106 -105 -124 34 -25 88 -18 141 18 83
56 113 121 77 166 l-18 22 -95 -82z"/>
<path d="M9650 13706 c-61 -41 -120 -125 -120 -170 0 -24 32 -56 56 -56 26 0
108 67 140 114 38 57 43 95 16 119 -25 23 -51 21 -92 -7z"/>
<path d="M12117 13582 c-22 -24 -21 -44 4 -95 32 -61 85 -123 119 -137 25 -10
34 -10 55 4 47 31 22 107 -64 197 -52 53 -86 63 -114 31z"/>
<path d="M9972 13374 c-65 -130 -67 -143 -19 -144 55 0 126 84 142 171 5 30 2
41 -20 67 -15 18 -30 32 -34 32 -3 0 -35 -57 -69 -126z"/>
<path d="M10292 13347 c-6 -7 -25 -42 -41 -77 -49 -103 -40 -190 18 -190 40 0
76 45 101 127 24 78 25 102 4 131 -17 25 -65 30 -82 9z"/>
<path d="M11530 13316 c0 -27 23 -116 31 -116 4 0 17 8 29 18 42 34 10 112
-44 112 -9 0 -16 -6 -16 -14z"/>
<path d="M11140 13194 c0 -63 1 -65 23 -58 28 9 37 22 37 57 0 39 -17 67 -40
67 -18 0 -20 -7 -20 -66z"/>
<path d="M5770 11415 c-15 -19 11 -61 175 -280 423 -565 1010 -1077 1715
-1497 578 -345 1300 -660 1894 -829 163 -46 168 -46 164 -17 -3 19 -20 27
-138 60 -670 190 -1437 535 -2055 925 -683 432 -1258 968 -1644 1533 -45 66
-86 120 -90 120 -5 0 -14 -7 -21 -15z"/>
<path d="M5682 11130 c-19 -8 -21 -12 -10 -29 10 -17 19 -19 54 -14 37 5 43 3
63 -25 25 -35 21 -76 -9 -92 -27 -14 -125 -12 -195 5 -74 18 -106 19 -128 2
-16 -11 -11 -21 50 -109 38 -54 73 -98 78 -98 6 0 16 4 24 9 11 7 3 24 -38 81
-29 39 -50 74 -48 77 3 2 50 -4 104 -15 125 -26 168 -20 200 27 29 43 29 89 0
132 -36 54 -88 71 -145 49z"/>
<path d="M5841 10921 c-10 -6 -11 -13 -3 -27 8 -14 20 -18 49 -16 52 4 79 -24
66 -65 -13 -39 -55 -53 -94 -31 -16 10 -36 15 -44 12 -13 -5 -12 -10 5 -34 54
-76 -51 -167 -109 -94 -23 30 -26 55 -10 85 10 20 -2 49 -22 49 -18 0 -41 -63
-35 -98 7 -45 59 -100 103 -108 64 -12 133 39 133 97 0 26 4 29 31 29 42 0 89
47 89 91 0 36 -32 94 -60 109 -23 12 -80 13 -99 1z"/>
<path d="M5331 10801 c-10 -7 -2 -26 40 -87 167 -249 344 -461 603 -720 286
-285 542 -498 876 -726 651 -444 1507 -848 2255 -1061 184 -53 185 -53 185
-24 0 22 -8 26 -87 47 -140 36 -473 147 -658 217 -849 325 -1559 733 -2190
1257 -153 127 -522 496 -646 646 -101 122 -212 268 -293 388 -50 72 -59 79
-85 63z"/>
<path d="M6052 10546 c-59 -57 -120 -115 -137 -129 l-30 -26 55 -56 c66 -68
120 -105 155 -105 40 0 131 47 161 83 31 37 63 103 64 130 0 11 -7 34 -16 52
-17 37 -120 155 -135 155 -5 0 -58 -47 -117 -104z m182 -35 c38 -54 35 -97
-10 -149 -44 -51 -81 -72 -129 -72 -30 0 -46 9 -88 49 l-51 49 64 58 c36 33
83 75 104 95 37 34 42 36 62 22 12 -7 34 -31 48 -52z"/>
<path d="M6363 10386 c-10 -13 -65 -77 -123 -141 l-104 -117 29 -25 c17 -14
63 -54 104 -90 68 -60 75 -63 90 -48 15 15 10 22 -59 85 -41 38 -78 69 -82 70
-17 0 -6 22 28 60 20 22 40 40 44 40 4 0 40 -29 80 -65 57 -51 76 -63 86 -54
23 19 17 30 -57 98 l-71 66 35 40 34 39 86 -71 c73 -62 87 -70 97 -58 10 13 9
19 -6 37 -32 36 -174 158 -183 158 -5 0 -18 -11 -28 -24z"/>
<path d="M6620 9954 c-106 -138 -124 -174 -85 -174 8 0 54 52 101 115 48 63
88 115 89 115 3 0 -65 -199 -90 -261 -13 -34 -12 -38 6 -54 18 -18 23 -15 149
68 71 48 132 87 135 87 3 0 -35 -50 -85 -111 -49 -61 -90 -114 -90 -119 0 -5
9 -14 21 -21 17 -9 23 -7 35 9 7 10 58 77 114 147 94 121 99 130 83 147 -9 10
-23 18 -32 18 -9 0 -74 -38 -146 -84 -71 -47 -131 -83 -133 -82 -1 2 22 70 51
152 l55 149 -25 23 c-13 12 -28 22 -33 22 -5 0 -59 -66 -120 -146z"/>
<path d="M7068 9762 c-35 -26 -105 -76 -155 -111 -113 -77 -121 -86 -93 -101
18 -10 28 -6 71 25 l50 36 43 -25 c23 -13 52 -33 65 -43 22 -18 23 -20 8 -76
-15 -55 -14 -58 6 -72 11 -8 23 -13 25 -11 2 3 17 66 33 141 16 75 35 159 44
187 19 65 19 63 -10 82 -23 15 -26 14 -87 -32z m37 -97 c-10 -42 -21 -78 -25
-80 -8 -5 -90 44 -90 54 0 5 17 20 39 35 21 15 49 38 61 51 13 14 25 23 28 20
2 -2 -4 -38 -13 -80z"/>
<path d="M7213 9512 c-92 -141 -101 -158 -86 -170 10 -7 22 -11 28 -9 5 2 54
73 108 158 89 140 96 155 81 166 -10 7 -20 13 -23 13 -3 0 -52 -71 -108 -158z"/>
<path d="M7415 9558 c-104 -37 -177 -176 -139 -267 31 -75 90 -114 170 -114
86 0 151 56 189 162 28 80 -13 167 -98 206 -57 27 -76 29 -122 13z m99 -52
c70 -29 93 -96 60 -174 -45 -109 -152 -142 -224 -70 -24 24 -30 38 -30 74 0
75 53 155 116 174 40 12 41 12 78 -4z"/>
<path d="M7790 9193 c-47 -87 -86 -162 -88 -168 -1 -6 27 -28 64 -50 127 -74
219 -57 283 50 26 43 36 71 39 114 5 78 -15 105 -120 164 -46 26 -87 47 -89
47 -2 0 -42 -71 -89 -157z m182 51 c46 -28 58 -41 64 -69 7 -42 0 -67 -38
-128 -53 -83 -95 -91 -190 -37 l-47 26 67 122 c37 67 72 122 77 122 6 0 36
-16 67 -36z"/>
<path d="M8096 9021 l-86 -171 121 -60 c121 -61 149 -67 149 -33 0 13 -26 30
-95 62 -52 24 -95 48 -95 53 0 12 49 108 55 108 3 0 45 -20 94 -45 74 -37 90
-42 95 -29 11 29 6 33 -84 75 -49 23 -90 44 -90 46 0 3 12 27 27 53 l27 48 97
-48 c72 -37 99 -46 108 -37 6 6 11 16 11 22 0 8 -165 93 -241 123 -4 2 -46
-74 -93 -167z"/>
<path d="M8675 8930 c-22 -11 -50 -20 -62 -20 -19 0 -43 -25 -43 -45 0 -3 20
-3 45 1 27 4 45 2 45 -3 0 -6 -23 -65 -51 -133 -28 -67 -49 -123 -47 -125 2
-1 12 -5 24 -9 19 -6 27 8 87 156 36 90 67 169 69 177 4 22 -22 22 -67 1z"/>
<path d="M8837 8814 c-24 -38 -47 -75 -51 -83 -13 -21 12 -30 64 -24 42 5 49
3 68 -22 30 -38 28 -77 -7 -114 -54 -58 -131 -33 -131 41 0 23 -4 28 -25 28
-20 0 -25 -5 -25 -24 0 -66 53 -116 123 -116 100 0 167 103 123 189 -20 39
-38 51 -85 59 l-41 7 25 37 25 37 62 -25 c67 -26 88 -25 88 3 0 16 -39 34
-152 70 -12 4 -28 -13 -61 -63z"/>
<path d="M9086 8765 c-31 -29 -33 -41 -6 -55 16 -8 22 -8 26 4 3 8 19 19 36
25 25 9 36 8 55 -4 52 -34 10 -116 -52 -101 -18 5 -27 1 -35 -14 -9 -17 -8
-20 8 -20 10 0 29 -11 41 -24 47 -50 -1 -138 -66 -121 -38 9 -53 23 -53 51 0
12 -7 30 -16 38 -34 35 -51 9 -34 -53 8 -32 19 -45 48 -60 68 -35 114 -31 158
13 27 27 34 42 34 73 0 21 -7 49 -16 61 -13 19 -13 22 0 22 25 0 56 50 56 90
0 84 -121 133 -184 75z"/>
<path d="M9325 8630 c-25 -51 -44 -94 -42 -97 7 -6 38 -5 70 3 37 9 72 -11 87
-47 13 -32 8 -56 -21 -93 -39 -50 -129 -23 -129 39 0 14 -4 25 -9 25 -5 0 -17
3 -27 7 -28 10 -12 -73 20 -105 35 -36 117 -42 164 -12 34 21 62 72 62 111 0
62 -57 119 -120 119 -16 0 -30 2 -30 4 0 10 42 76 48 76 4 0 36 -9 71 -20 51
-16 66 -18 73 -8 16 27 6 35 -66 57 -41 11 -81 24 -90 27 -11 4 -27 -18 -61
-86z"/>
<path d="M4892 16255 l-104 -185 -66 -19 c-37 -11 -118 -34 -179 -52 -62 -18
-113 -35 -112 -38 0 -3 49 -46 109 -96 61 -49 119 -98 131 -107 l20 -17 -36
-182 c-20 -99 -34 -183 -31 -186 3 -3 86 29 185 71 99 42 186 76 194 76 8 0
94 -36 192 -80 98 -44 179 -79 181 -77 2 1 -19 84 -46 182 -27 99 -50 183 -50
186 0 3 61 59 135 125 74 65 131 122 127 125 -4 3 -80 27 -168 54 l-162 48
-107 179 c-60 98 -108 178 -109 178 -1 0 -48 -83 -104 -185z"/>
<path d="M10931 8750 c-57 -99 -108 -183 -115 -188 -6 -5 -85 -30 -176 -56
-91 -26 -166 -49 -168 -51 -2 -2 234 -206 256 -221 2 -1 -13 -84 -32 -185 -20
-101 -33 -185 -31 -187 3 -3 86 29 185 72 100 42 187 76 194 76 7 0 93 -36
191 -80 98 -44 179 -79 181 -77 2 2 -19 84 -46 183 -27 98 -50 182 -50 185 0
3 61 59 135 124 74 65 132 121 129 124 -2 3 -78 26 -167 53 -99 29 -168 55
-177 66 -9 10 -58 91 -109 180 -51 89 -94 162 -95 162 0 0 -48 -81 -105 -180z"/>
<path d="M16215 8819 c-204 -29 -427 -126 -796 -345 -412 -244 -718 -355
-1234 -449 -190 -34 -178 -30 -166 -54 6 -11 7 -21 3 -23 -5 -2 96 -228 223
-503 196 -422 230 -501 216 -507 -22 -10 -336 -70 -556 -107 -1267 -211 -2790
-282 -4200 -196 -647 40 -1316 120 -1855 221 -175 33 -401 81 -405 87 -1 1
100 223 225 492 136 293 227 503 228 522 1 29 -2 32 -41 38 -232 37 -570 119
-757 184 -221 76 -337 133 -628 305 -279 165 -478 257 -662 307 -74 21 -108
23 -270 23 -201 0 -193 2 -540 -89 -715 -187 -1384 -203 -1656 -39 l-54 33 0
-34 c0 -30 75 -405 283 -1423 58 -283 79 -366 93 -378 123 -97 293 -187 439
-231 82 -24 105 -27 250 -27 137 0 169 3 225 22 35 11 67 19 70 16 14 -15
-202 -393 -319 -559 -79 -112 -83 -129 -55 -239 20 -82 101 -246 160 -326 183
-249 456 -462 854 -664 1493 -760 4520 -1135 7385 -915 1971 151 3496 562
4310 1160 204 151 412 385 505 568 68 136 110 304 110 438 l0 75 -144 201
c-79 111 -154 218 -165 239 l-22 36 62 -19 c138 -43 317 -42 479 2 133 36 382
169 442 236 12 13 45 154 107 454 145 704 268 1322 270 1351 l1 27 -51 -34
c-257 -169 -913 -153 -1679 41 -362 92 -503 109 -685 83z m-9172 -2428 c219
-57 353 -187 365 -353 5 -68 -6 -239 -17 -256 -5 -9 -43 -5 -147 16 -134 27
-139 29 -137 53 17 206 16 233 -8 263 -31 39 -94 66 -155 66 -63 0 -99 -25
-113 -78 -12 -47 -121 -869 -121 -914 0 -49 34 -96 83 -118 101 -44 180 -32
209 31 9 19 21 87 28 151 7 64 16 121 19 126 5 9 278 -42 290 -53 2 -3 -3 -67
-12 -143 -26 -208 -68 -281 -197 -341 -48 -22 -68 -26 -160 -25 -239 0 -466
112 -537 265 -43 91 -45 144 -18 343 77 549 107 750 121 789 34 97 105 164
206 192 68 19 196 13 301 -14z m8141 -362 c115 -320 258 -711 361 -987 21 -54
25 -76 16 -81 -24 -15 -293 -73 -301 -64 -4 4 -27 68 -51 141 -33 101 -47 132
-59 129 -8 -2 -88 -19 -177 -38 l-161 -34 -7 -95 c-3 -52 -9 -122 -13 -155
l-7 -60 -109 -22 c-61 -12 -126 -25 -146 -28 l-36 -6 13 126 c23 226 82 862
108 1164 14 162 26 296 28 297 3 3 401 91 404 89 1 -1 63 -170 137 -376z
m-3344 293 c0 -4 -62 -64 -137 -133 l-138 -126 -118 -7 c-96 -6 -117 -4 -111
6 8 12 172 237 181 248 3 3 68 8 146 11 78 3 150 6 160 7 9 1 17 -2 17 -6z
m-4056 -97 c77 -14 141 -27 144 -29 7 -8 -140 -1510 -149 -1520 -8 -9 -296 37
-307 49 -6 6 144 1453 155 1503 3 12 8 22 12 22 3 0 69 -11 145 -25z m6211
-36 c173 -32 255 -134 277 -348 6 -61 10 -113 7 -115 -3 -3 -59 -14 -124 -26
-66 -11 -129 -23 -141 -25 -20 -4 -22 1 -32 108 -16 157 -46 192 -154 183 -72
-5 -118 -31 -141 -79 -18 -37 -18 -44 17 -460 48 -565 43 -526 81 -564 28 -28
40 -33 80 -33 101 0 177 45 189 112 3 18 0 90 -7 161 -7 70 -12 127 -12 127 0
0 65 11 144 25 79 14 146 24 148 21 2 -2 11 -63 19 -136 11 -103 12 -146 3
-194 -36 -202 -224 -328 -509 -343 -212 -11 -346 64 -394 222 -23 74 -89 965
-77 1031 35 182 161 285 404 329 92 17 148 18 222 4z m-5618 -58 c110 -16 291
-40 402 -52 l201 -24 0 -51 c0 -28 -3 -78 -6 -111 l-7 -60 -46 5 c-25 2 -143
17 -261 32 -118 15 -216 26 -216 26 -1 -1 -7 -68 -13 -151 -6 -82 -14 -173
-17 -201 l-6 -50 184 -23 c100 -12 196 -24 212 -27 l29 -6 -6 -105 c-3 -58 -8
-107 -10 -110 -3 -2 -98 7 -212 22 -114 14 -209 25 -210 23 -6 -5 -39 -457
-34 -462 2 -3 125 -19 273 -37 l269 -33 -7 -75 c-3 -41 -6 -89 -6 -108 0 -31
-2 -33 -33 -33 -80 0 -821 100 -833 113 -11 11 130 1527 142 1527 6 0 101 -13
211 -29z m4812 -835 c28 -412 49 -752 45 -755 -5 -6 -307 -40 -312 -36 -5 4
-93 1498 -90 1520 3 18 17 21 148 35 129 14 146 14 152 0 3 -8 29 -352 57
-764z m-3839 724 c199 -15 187 -11 204 -73 8 -28 58 -208 110 -399 53 -191
106 -377 118 -415 l22 -68 16 453 c9 249 20 455 23 458 3 4 65 3 136 -1 l131
-7 0 -52 c0 -86 -40 -1490 -43 -1491 -6 -3 -322 16 -325 20 -7 6 -166 554
-253 867 -40 147 -75 265 -78 263 -2 -3 -16 -250 -31 -550 -14 -299 -28 -547
-31 -549 -3 -3 -65 0 -138 6 -95 8 -134 15 -138 25 -5 14 75 1497 83 1521 2 7
13 10 26 8 13 -3 88 -10 168 -16z m3334 -12 c10 -47 11 -198 1 -202 -6 -2
-119 -12 -253 -22 l-243 -18 6 -96 c3 -52 8 -148 11 -212 3 -65 10 -118 14
-118 5 0 93 7 196 15 103 9 188 14 190 13 1 -2 6 -51 9 -109 l8 -107 -29 -6
c-16 -3 -107 -11 -202 -17 l-173 -12 8 -221 c4 -122 8 -273 8 -336 l0 -115
-153 -9 c-84 -4 -155 -7 -157 -4 -6 6 -49 1527 -43 1533 3 3 113 12 244 21
131 8 302 21 379 28 77 7 148 14 157 15 11 0 20 -8 22 -21z m-1796 -58 l312 0
0 -110 0 -110 -160 0 -160 0 -2 -662 -3 -663 -25 -4 c-14 -1 -85 0 -159 4
l-134 7 7 659 7 659 -78 0 c-43 0 -115 3 -160 7 l-83 6 0 86 c0 47 3 97 7 110
l6 24 156 -6 c86 -4 297 -7 469 -7z m763 8 c3 -14 35 -1534 31 -1538 -2 -3
-75 -7 -162 -9 l-158 -3 -6 688 c-3 379 -8 726 -10 771 l-5 82 52 4 c65 4 257
8 258 5z"/>
<path d="M14847 5727 c-10 -199 -20 -374 -23 -389 l-5 -26 137 29 c75 16 138
29 140 29 4 0 -223 710 -229 716 -2 2 -11 -160 -20 -359z"/>
<path d="M8785 3873 c8 -78 300 -773 475 -1128 145 -293 155 -309 216 -324
150 -38 453 -177 699 -321 178 -105 470 -299 650 -434 l140 -104 45 38 c85 70
355 267 493 360 359 240 695 407 942 469 37 10 47 20 112 118 84 128 120 190
201 343 146 276 435 930 437 988 1 28 -2 32 -25 32 -14 0 -188 -16 -385 -34
-948 -91 -1265 -115 -1640 -123 -407 -8 -987 16 -1500 63 -180 16 -765 80
-827 90 l-37 6 4 -39z m2671 -341 c84 -43 142 -139 151 -249 l6 -61 -82 -4
c-80 -3 -82 -3 -87 22 -23 108 -91 155 -187 129 -78 -20 -112 -79 -82 -143 19
-40 49 -57 172 -102 122 -44 172 -73 217 -125 52 -61 71 -126 70 -239 -1 -115
-26 -191 -86 -256 -58 -63 -124 -88 -233 -88 -103 0 -165 21 -223 77 -55 52
-106 172 -114 267 -3 34 -2 35 42 42 25 3 61 7 81 7 34 1 37 -1 43 -34 28
-146 138 -209 258 -148 35 17 68 81 68 131 0 67 -46 107 -170 147 -72 23 -159
67 -198 100 -17 14 -42 49 -56 78 -90 183 -23 402 140 463 59 22 217 14 270
-14z m-589 -59 c-4 -38 -7 -80 -7 -95 l0 -28 -215 0 -215 0 0 -120 0 -120 200
0 200 0 0 -95 0 -95 -200 0 -200 0 0 -150 0 -150 225 0 225 0 0 -95 0 -95
-310 0 -310 0 0 555 0 555 306 0 307 0 -6 -67z"/>
</g>
</svg>
