<?xml version="1.0" encoding="utf-8"?>
<!-- Generator: Adobe Illustrator 19.2.1, SVG Export Plug-In . SVG Version: 6.00 Build 0)  -->
<svg version="1.1" id="Layer_1" xmlns="http://www.w3.org/2000/svg" xmlns:xlink="http://www.w3.org/1999/xlink" x="0px" y="0px"
	 viewBox="0 0 707.4 81.7" style="enable-background:new 0 0 707.4 81.7;" xml:space="preserve">
<title>rocco_logo_vers2</title>
<linearGradient id="SVGID_1_" gradientUnits="userSpaceOnUse" x1="179.45" y1="717.59" x2="179.45" y2="659.4" gradientTransform="matrix(1 0 0 1 -38.5 -648.89)">
	<stop  offset="0" style="stop-color:#BFBFBF"/>
	<stop  offset="1" style="stop-color:#FDFDFD"/>
</linearGradient>
<path style="fill:url(#SVGID_1_);" d="M59.1,66.5c-0.7,0-1.4-0.1-2.1-0.2c-1.1-0.2-4.3-0.8-8.5-5.2c-4.5-4.7-9.7-11.5-16.5-20
	c7.7-6.2,10-11.4,10-17c0-4.1-1.9-8-5.2-10.4c-4.1-2.8-9.2-3.3-14-3.3c-2.4,0-8.1,0.2-10.7,0.2c-1.6,0-6.4-0.2-10.4-0.2
	c-1.1,0-1.7,0.2-1.7,0.7s0.5,0.7,1.3,0.7c1,0,2,0.1,3,0.2c2.5,0.5,3.1,1.7,3.3,4.3c0.2,2.4,0.2,4.6,0.2,16.1v13.4c0,7,0,13-0.4,16.2
	c-0.3,2.2-0.7,3.9-2.2,4.2c-0.9,0.2-1.8,0.3-2.7,0.3c-0.9,0-1.2,0.2-1.2,0.6s0.5,0.8,1.5,0.8c3,0,7.8-0.2,9.3-0.2
	c1.1,0,6.8,0.2,11.2,0.2c1,0,1.5-0.2,1.5-0.8c0-0.4-0.3-0.6-0.9-0.6c-0.9,0-2.6-0.2-3.7-0.3c-2.3-0.3-2.7-2-3-4.2
	c-0.4-3.2-0.4-9.2-0.4-16.2v-1.1c-0.1-0.3,0.1-0.5,0.4-0.6c0.1,0,0.2,0,0.2,0l6.6,0.2c0.5,0,1,0.1,1.4,0.5c1,1.1,4.5,6.3,7.5,10.5
	c4.3,5.8,7.2,9.4,10.4,11.2c2,1.1,3.9,1.4,8.1,1.4h7.1c0.9,0,1.4-0.2,1.4-0.8C60,66.7,59.7,66.5,59.1,66.5z M28.5,39.3
	c-1.4,1-2.4,1.3-5.4,1.3c-2,0.1-3.9-0.2-5.8-0.8c-0.5-0.2-0.7-0.5-0.7-1.4V15.3c-0.1-0.5,0.2-1,0.7-1.1c1.3-0.2,2.7-0.3,4-0.3
	c4.5,0,11.6,3.1,11.6,13.9C33,34.2,30.8,37.7,28.5,39.3z M84.3,18.2c-20.3,0-28.1,14.3-28.1,25.3c0,11.5,7.9,25.3,27.4,25.3
	c17.3,0,28.1-11.6,28.1-26.4S101.2,18.2,84.3,18.2z M86.4,65.2c-12.6,0-20.2-10.5-20.2-23.7c0-15.9,8.7-19.9,16.2-19.9
	c10.8,0,19.4,8.8,19.4,23.1C101.7,63,91.1,65.2,86.4,65.2z M165,55.6c-0.5,0-0.7,0.3-0.8,1.3c-0.4,1.6-1.2,3.1-2.3,4.3
	c-2.7,3-5.9,3.4-11.9,3.4c-9,0-20.8-7.3-20.8-22.6c0-6.3,1.2-12.5,6.2-16.8c3-2.6,6.8-3.6,12.6-3.6c6.2,0,10.7,1.6,12.9,3.8
	c1.6,1.6,2.5,3.7,2.6,6c0,0.8,0.2,1.4,0.7,1.4s0.8-0.7,0.9-1.6c0.1-1.3,0.1-4.9,0.2-7c0.2-2.3,0.3-3,0.3-3.6c0-0.4-0.2-0.7-1-0.8
	c-2-0.2-4.2-0.7-6.7-1.1c-3.2-0.5-6.5-0.7-9.7-0.7c-10,0-16.4,2.6-21.2,6.8c-5,4.5-7.8,11-7.8,17.7c0,6.2,1.8,13.5,8.4,19
	c6.1,5.1,13.8,7,23,7c4.3,0,9.4-0.4,12.1-1.4c0.9-0.2,1.6-1,1.7-1.9c0.7-2.8,1.2-5.7,1.4-8.6C165.8,56.1,165.5,55.7,165,55.6z
	 M218.7,55.6c-0.5,0-0.7,0.3-0.8,1.3c-0.4,1.6-1.2,3.1-2.3,4.3c-2.7,3-5.9,3.4-11.9,3.4c-9,0-20.8-7.3-20.8-22.6
	c0-6.3,1.2-12.5,6.2-16.8c3-2.6,6.8-3.6,12.6-3.6c6.2,0,10.7,1.6,12.9,3.8c1.6,1.6,2.5,3.7,2.6,6c0,0.8,0.2,1.4,0.7,1.4
	s0.8-0.7,0.9-1.6c0.1-1.3,0.1-4.9,0.2-7c0.2-2.3,0.3-3,0.3-3.6c0-0.4-0.2-0.7-1-0.8c-2-0.2-4.2-0.7-6.7-1.1
	c-3.2-0.5-6.5-0.7-9.7-0.7c-10,0-16.4,2.6-21.2,6.8c-5,4.5-7.8,11-7.8,17.7c0,6.2,1.7,13.5,8.4,19c6.1,5.1,13.8,7,23,7
	c4.3,0,9.4-0.4,12.1-1.4c0.9-0.3,1.6-1,1.8-1.9c0.7-2.8,1.2-5.7,1.4-8.6C219.4,56.2,219.1,55.8,218.7,55.6z M254.5,18.2
	c-20.3,0-28.1,14.3-28.1,25.3c0,11.5,7.9,25.3,27.4,25.3c17.3,0,28.1-11.6,28.1-26.4S271.4,18.2,254.5,18.2z M256.6,65.2
	c-12.6,0-20.2-10.5-20.2-23.7c0-15.9,8.7-19.9,16.2-19.9c10.8,0,19.4,8.8,19.4,23.1C271.9,63,261.3,65.2,256.6,65.2z"/>
<linearGradient id="SVGID_2_" gradientUnits="userSpaceOnUse" x1="580.0999" y1="717.59" x2="580.0999" y2="658.11" gradientTransform="matrix(1 0 0 1 -39.5 -648.89)">
	<stop  offset="0" style="stop-color:#BFBFBF"/>
	<stop  offset="1" style="stop-color:#FDFDFD"/>
</linearGradient>
<path style="fill:url(#SVGID_2_);" d="M393.1,33l-2.1-1.6c-6.3-4.8-8.1-7.4-8.1-10.9c0-4.6,3.4-7.8,9.1-7.8c4.9,0,7.2,2.3,8.3,3.7
	c1.1,1.4,1.8,3.2,2,5c0,0.9,0.2,1.4,0.8,1.4s0.8-0.6,0.8-2.3c0-5.9,0.3-8.1,0.3-9.1c-0.1-0.5-0.5-1-1.1-0.9c0,0,0,0,0,0
	c-3.3-0.9-6.7-1.3-10.1-1.3c-10.6,0-17.6,6-17.6,14.3c0,6.1,2.9,11.5,11.3,18l3.5,2.7c6.3,4.9,7.5,8.4,7.5,12.1
	c0,4-3.3,8.6-10.2,8.6c-4.7,0-9.2-2-10.9-7.7c-0.4-1.3-0.6-2.6-0.7-3.9c0-0.6-0.1-1.3-0.8-1.3s-0.8,0.8-0.9,2s-0.4,5.8-0.4,9.9
	c0,1.7,0.2,2,1.4,2.6c3.5,1.4,7.3,2.1,11.1,2c4.2,0.1,8.4-0.9,12.1-3.1c4.5-2.8,7.3-7.8,7.2-13.2C405.6,45.2,402.3,39.9,393.1,33z
	 M437.5,66.3c-1,0-2.5-0.1-3.4-0.2c-2-0.3-2.4-1.3-2.7-3c-0.3-2.7-0.3-7.9-0.3-14.1V37.6c0-9.8,0-11.6,0.2-13.7
	c0.2-2.3,0.7-3.2,2.5-3.5c0.7-0.2,1.3-0.2,2-0.2c0.7,0,1.1-0.2,1.1-0.8c0-0.4-0.5-0.5-1.4-0.5c-2.6,0-6.9,0.2-8.6,0.2
	c-1.9,0-6.5-0.2-9-0.2c-1.1,0-1.6,0.2-1.6,0.5c0,0.6,0.4,0.8,1.1,0.8c0.8,0,1.6,0.1,2.4,0.3c1.4,0.5,2.1,1.2,2.3,3.4
	c0.1,2,0.1,3.9,0.1,13.7V49c0,6.2,0,11.4-0.3,14c-0.2,1.9-0.6,2.8-2,3.1c-0.8,0.2-1.6,0.3-2.4,0.2c-0.5-0.1-1,0.2-1.1,0.7
	c0,0,0,0,0,0c0,0.5,0.5,0.7,1.3,0.7c2.7,0,7.2-0.2,8.7-0.2c1.8,0,6.4,0.2,10.8,0.2c0.8,0,1.3-0.2,1.3-0.7S438.3,66.3,437.5,66.3z
	 M480.4,18.3c-0.4,0.1-0.8,0.2-1.1,0.4c-0.9,0.2-1.8,0.3-2.7,0.3c-1.6,0.1-16.4,0-19,0c-1.9,0-6.2-0.2-9.6-0.2
	c-1.1,0-1.6,0.2-1.6,0.6s0.5,0.7,1.1,0.7c0.9,0,1.8,0.1,2.7,0.2c2.1,0.5,2.7,1.3,2.9,3.5c0.1,2,0.1,3.9,0.1,13.7v11.4
	c0,6.2,0,11-0.3,13.7c-0.2,1.9-0.6,3.1-2,3.4c-0.8,0.2-1.6,0.3-2.4,0.2c-0.8,0-1,0.4-1,0.7c0,0.5,0.5,0.7,1.4,0.7
	c2.5,0,6.8-0.2,8.5-0.2s6.5,0.2,10.7,0.2c1,0,1.4-0.2,1.4-0.7c-0.1-0.5-0.6-0.8-1.1-0.7c0,0,0,0,0,0c-0.9,0-2.4-0.1-3.3-0.2
	c-2-0.3-2.4-1.5-2.7-3.4c-0.3-2.7-0.4-7.3-0.4-13.5v-5.3c0-0.5,0.2-0.5,0.5-0.5c1.1,0,9.1,0.1,10.7,0.2c1.5,0,2.8,1,3.2,2.4
	c0.3,0.6,0.4,1.3,0.5,2c-0.1,0.4,0.2,0.8,0.6,0.9c0,0,0,0,0,0c0.7,0,0.8-0.9,0.8-1.4s0.1-3.4,0.2-4.7c0.2-2,0.5-3.8,0.5-4.2
	c0.1-0.3-0.1-0.5-0.4-0.6c0,0,0,0,0,0c-0.4,0.1-0.7,0.3-0.9,0.7c-0.7,0.8-1.7,1.2-2.8,1.1c-1,0.1-2,0.1-3,0.1l-9.4,0.1
	c-0.4,0-0.5-0.2-0.5-0.6V23.7c0-0.8,0.2-0.9,0.6-0.9l11.1,0.2c2.5,0.1,3.8,1.1,4.3,2c0.3,0.7,0.5,1.6,0.4,2.4
	c-0.1,0.5,0.2,1,0.7,1.1c0,0,0.1,0,0.1,0c0.4,0,0.6-0.8,0.7-1.3c0.1-0.8,0.2-4.6,0.3-5.2c0.2-1.7,0.5-2.4,0.5-2.9
	S480.6,18.3,480.4,18.3z M520.5,18.3c-0.4,0.1-0.8,0.2-1.1,0.4c-0.9,0.2-1.8,0.3-2.7,0.3c-1.6,0.1-16.4,0-19,0
	c-1.9,0-6.2-0.2-9.6-0.2c-1.1,0-1.6,0.2-1.6,0.6s0.5,0.7,1.1,0.7c0.9,0,1.8,0.1,2.7,0.2c2.1,0.5,2.7,1.3,2.9,3.5
	c0.1,2,0.1,3.9,0.1,13.7v11.4c0,6.2,0,11-0.3,13.7c-0.2,1.9-0.6,3.1-2,3.4c-0.8,0.2-1.6,0.3-2.4,0.2c-0.8,0-1,0.4-1,0.7
	c0,0.5,0.5,0.7,1.4,0.7c2.5,0,6.8-0.2,8.5-0.2s6.5,0.2,10.7,0.2c1,0,1.4-0.2,1.4-0.7c-0.1-0.5-0.6-0.8-1.1-0.7c0,0,0,0,0,0
	c-0.9,0-2.4-0.1-3.3-0.2c-2-0.3-2.4-1.5-2.7-3.4c-0.3-2.7-0.4-7.3-0.4-13.5v-5.3c0-0.5,0.2-0.5,0.5-0.5c1.1,0,9.1,0.1,10.7,0.2
	c1.5,0,2.8,1,3.2,2.4c0.3,0.6,0.4,1.3,0.5,2c-0.1,0.4,0.2,0.8,0.6,0.9c0,0,0,0,0,0c0.7,0,0.8-0.9,0.8-1.4s0.1-3.4,0.2-4.7
	c0.2-2,0.5-3.8,0.5-4.2c0.1-0.3-0.1-0.5-0.4-0.6c0,0,0,0,0,0c-0.4,0.1-0.7,0.3-0.9,0.7c-0.7,0.8-1.7,1.2-2.8,1.1c-1,0.1-2,0.1-3,0.1
	l-9.4,0.1c-0.4,0-0.5-0.2-0.5-0.6V23.7c0-0.8,0.2-0.9,0.6-0.9l11.1,0.2c2.5,0.1,3.8,1.1,4.3,2c0.3,0.7,0.5,1.6,0.4,2.4
	c-0.1,0.5,0.2,1,0.7,1.1c0,0,0.1,0,0.1,0c0.4,0,0.6-0.8,0.7-1.3c0.1-0.8,0.2-4.6,0.3-5.2c0.2-1.7,0.5-2.4,0.5-2.9
	S520.7,18.3,520.5,18.3z M616.5,57.5c-0.5,0-0.6,0.3-0.8,1c-0.5,2.7-1.2,4-2.9,4.8s-4.6,0.8-6.3,0.8c-6.8,0-8.9-1-9.1-5.4
	c-0.1-1.9,0-7.4,0-9.6v-5.2c0-0.4,0.1-0.7,0.4-0.7c1.7,0,9.3,0.2,10.5,0.3c2.5,0.2,3.3,1.2,3.7,2.5c0.2,0.8,0.2,1.6,0.2,2.4
	c0,0.3,0.2,0.5,0.5,0.5c0,0,0.1,0,0.1,0c0.6,0,0.7-0.9,0.7-1.4s0.2-3,0.3-4.3c0.4-3.3,0.5-4.3,0.5-4.7c0.1-0.3-0.2-0.6-0.5-0.7
	c0,0,0,0,0,0c-0.4,0.2-0.8,0.5-1.1,0.8c-0.6,0.7-1.6,0.8-3.2,1s-10.2,0.2-11.7,0.2c-0.4,0-0.5-0.3-0.5-0.7V23.2
	c0-0.3,0.1-0.5,0.4-0.6c0,0,0.1,0,0.1,0c1.4,0,9.4,0.2,10.5,0.3c3.3,0.3,3.9,1.2,4.4,2.4c0.3,0.8,0.5,1.6,0.5,2.4
	c0,0.5,0.1,0.8,0.5,0.8s0.7-0.8,0.8-1.1c0.2-0.8,0.3-3.6,0.4-4.2c0.2-3,0.5-3.7,0.5-4.2c0.1-0.3-0.1-0.5-0.4-0.6c0,0-0.1,0-0.1,0
	c-0.4,0.1-0.7,0.2-1.1,0.3c-0.9,0.2-1.9,0.3-2.8,0.4c-1.3,0.1-16.1,0-18.3,0c-1.9,0-6.2-0.2-9.7-0.2c-1,0-1.5,0.2-1.5,0.6
	c0,0.5,0.5,0.7,1.1,0.7c0.9,0,1.8,0.1,2.7,0.2c2.1,0.6,2.7,1.3,2.9,3.5c0.1,2,0.1,3.9,0.1,13.7V49c0,5.9,0,11-0.3,13.7
	c-0.2,1.9-0.6,3.1-2,3.4c-0.8,0.2-1.6,0.3-2.4,0.2c-0.4,0-0.7,0.1-1,0.4c-0.1-0.2-0.4-0.4-0.7-0.4c-0.5,0-1.1,0-1.6-0.2
	c-1.1-0.2-3.4-0.5-7.2-4.2c-4-4-8.7-9.9-14.7-17.1c6.5-5.2,9.3-9.5,9.3-14.3c-0.1-3.5-1.8-6.8-4.7-8.9c-3.6-2.4-8.4-2.7-12.7-2.7
	c-2.1,0-8.1,0.2-10.4,0.2c-1.4,0-5.6-0.2-9.1-0.2c-1,0-1.5,0.2-1.5,0.6c0,0.5,0.5,0.7,1.1,0.7c0.9,0,1.8,0.1,2.7,0.2
	c2.1,0.6,2.7,1.3,2.9,3.5c0.1,2,0.1,3.9,0.1,13.7V49c0,5.9,0,11-0.3,13.7c-0.2,1.9-0.6,3.1-2,3.4c-0.8,0.2-1.6,0.3-2.4,0.2
	c-0.5-0.1-1,0.2-1.1,0.7c0,0,0,0,0,0c0,0.5,0.5,0.7,1.3,0.7c2.7,0,6.9-0.2,8.2-0.2c1,0,6.5,0.2,10.4,0.2c0.8,0,1.4-0.2,1.4-0.7
	c0-0.4-0.4-0.7-0.8-0.7c-0.8,0-2.3-0.1-3.3-0.2c-2.1-0.3-2.4-1.5-2.6-3.4c-0.3-2.7-0.4-7.7-0.4-13.7v-0.9c0-0.2,0.1-0.5,0.3-0.5
	c0.1,0,0.1,0,0.2,0l6,0.2c0.5,0,0.9,0.2,1.2,0.5c0.8,1,3.7,5.3,6.3,8.8c3.7,5,6.2,8,9.1,9.5c1.7,0.9,3.6,1.3,7.3,1.3h6.4
	c0.8-0.4,1.7-0.4,2.4,0c1.4,0,3-0.1,4.6-0.2s3-0.1,3.8-0.1c2,0,4.5,0.1,7.8,0.2s7.3,0.2,12.3,0.2c2.5,0,3.1,0,3.6-1.7
	c0.5-2.3,0.8-4.7,0.9-7.1C617.1,58.3,617.1,57.5,616.5,57.5L616.5,57.5z M555.3,43.2c-1.1,0.8-2.1,1.1-4.7,1.1
	c-1.7,0-3.4-0.2-5.1-0.6c-0.4-0.2-0.7-0.6-0.6-1.1V23.4c-0.1-0.4,0.2-0.8,0.6-0.9c1.3-0.2,2.7-0.3,4-0.2c4,0,10.2,2.4,10.2,11.5
	C559.6,39,557.3,41.8,555.3,43.2L555.3,43.2z M647.6,18.8c-4,0-8.8,0.2-10.9,0.2c-1.9,0-6.2-0.2-9.7-0.2c-1,0-1.5,0.2-1.5,0.6
	c0,0.5,0.5,0.7,1.1,0.7c0.9,0,1.8,0.1,2.7,0.2c2.1,0.6,2.7,1.3,2.9,3.5c0.1,2,0.1,3.9,0.1,13.7v11.4c0,5.9,0,11-0.3,13.7
	c-0.2,1.9-0.6,3.1-2,3.4c-0.8,0.2-1.6,0.3-2.4,0.2c-0.5-0.1-1,0.2-1.1,0.7c0,0,0,0,0,0c0,0.5,0.5,0.7,1.3,0.7c1.4,0,3-0.1,4.6-0.2
	s3-0.1,3.8-0.1c1.7,0,4.1,0.2,6.8,0.4s5.6,0.4,8,0.4c12.3,0,19.4-4.6,22.4-7.6c4.8-4.8,7.4-11.3,7.3-18c0.2-6.1-2.1-12-6.3-16.4
	C667.3,18.8,656,18.8,647.6,18.8L647.6,18.8z M665.6,60.4c-4,3.3-8.5,4.4-14.6,4.4c-5.2,0-7.9-1.4-8.7-2.6c-0.5-0.7-0.7-3-0.8-4.6
	c-0.1-1.3-0.2-6.2-0.2-13v-8.1c0-5.1,0-10.4,0.1-12.6c-0.1-0.6,0.2-1.2,0.8-1.3c1.3-0.4,2.7-0.5,4.1-0.5c5.2,0,12.6,0.7,18.7,6.1
	c3,2.6,6.2,7.9,6.2,16.1C671.3,51.1,669.9,56.9,665.6,60.4L665.6,60.4z M706.4,66.3c-1,0-2.5-0.1-3.4-0.2c-2-0.3-2.4-1.3-2.7-3
	C700,60.4,700,55.2,700,49V37.6c0-9.8,0-11.6,0.2-13.7c0.2-2.3,0.7-3.2,2.5-3.5c0.7-0.2,1.3-0.2,2-0.2c0.7,0,1.1-0.2,1.1-0.8
	c0-0.4-0.5-0.5-1.4-0.5c-2.6,0-6.9,0.2-8.6,0.2c-1.9,0-6.5-0.2-9-0.2c-1.1,0-1.6,0.2-1.6,0.5c0,0.6,0.4,0.8,1.1,0.8
	c0.8,0,1.6,0.1,2.4,0.3c1.4,0.5,2.1,1.2,2.3,3.4c0.1,2,0.1,3.9,0.1,13.7V49c0,6.2,0,11.4-0.3,14c-0.2,1.9-0.6,2.8-2,3.1
	c-0.8,0.2-1.6,0.3-2.4,0.2c-0.5-0.1-1,0.2-1.1,0.7c0,0,0,0,0,0c0,0.5,0.5,0.7,1.3,0.7c2.7,0,7.2-0.2,8.7-0.2c1.8,0,6.4,0.2,10.8,0.2
	c0.8,0,1.3-0.2,1.3-0.7S707.1,66.3,706.4,66.3L706.4,66.3z"/>
<path style="fill:#FF000B;" d="M325.8,38.2c0.3,0.9,0.3,1.8,0,2.7c-0.4,2-1.8,3.7-3.6,4.6c-2.3,1.3-3.9,2-4.4,2.3
	s-15.3,5.8-20.1,17.7c0,0-4.1,10.4-4.4,14.4c0,0,13.4-7.6,24.3-8.5c0,0,9.7,0.2,13,2.4c0,0-1-0.7-5.2-1.1
	c-6.2-0.6-12.4,0.3-18.1,2.7c-7.8,3.1-14.7,6.7-15.8,6.2s-0.5-1,0.1-3.1c1.5-4.9,3.4-9.7,5.5-14.4c2.5-5.3,6.7-9.7,12-12.3
	c6.3-3.1,10.6-4.7,13.9-7.6s3-4.3,2.3-6.3c-0.3-0.3-0.3-0.7-0.1-1c-0.5-0.1-1,0-1.4,0.2c-0.9,0.4-4.4,0.5-5.6-0.3s-1.7-0.9-2.8,0
	s-5.4,3-5.8,4.9s-2.3,3-5.4,2.7c-1.2-0.2-2.5-0.2-3.7,0.2c-1,0.1-0.8-0.6-1.5-1.5s-3.1-2.7-3.9-3.7s-0.7-1.8-0.2-3
	c0.4-0.8,0.8-1.6,1-2.4c0.1-1,0.7-1.9,1.6-2.4c1.2-0.9,11.4-9.1,11.9-10.4s0.5-3.1,1.4-3.6s5.8-3.6,6.5-4.5s1.4-1.1,1.2-1.6
	c-0.2-0.6-0.5-1.2-1-1.7c-0.6-0.6-0.2-1.4-0.2-2.9c0-1.6,0.2-3.2,0.6-4.7c0.4-1,1.1-2.3,2-2.2s0.8,0.7,1.1,1.9s1.9,4.7,4.5,5
	s5.4,0,6.6,0.4c1.9,0.4,3.5,1.5,4.8,2.9c2.2,2.3,4.2,4.2,5.6,4.4s1.9,0.4,1.9-0.8s0.5-0.9,0.9-0.4c0.4,1.1,0.4,2.2,0,3.3
	c-0.4,1.1-1.6,1.3-0.8,1.4s4.1,0.3,5.5,1.4s4.7,2.6,4.8,8.1l-0.5,1.8c-0.6-0.9-1.3-1.8-2.1-2.5c-0.8-0.4-1.6-1-0.6,0.1
	s3.7,3.7,4,6.2c0.2,2.4,0.1,4.9-0.4,7.3c-0.4,2.3-0.9,4.6,0.3,6.1s2.7,2.5,2.8,4.5s0,5.4-5.9,7.6c0,0,1.9-2.8,1.7-4.4
	c-0.2-1.4-0.9-2.6-1.9-3.6c-0.1,1.2-0.2,2.4-0.2,3.6c-0.1,2.5-0.9,5-2.3,7.1c-1.3,1.7-2.4,3.7-1.8,4.8s2.8,3.6,5.1,0.7
	c0,0,1.2-0.7,0.8-2.8s0.8-1,1.4-0.3s1.9,2.4,1.9,3.7s0.2,0.9,0.6,1.8s0.8,3.1-0.2,4.4s-3.1,4.3-8.8,2.7s-6.6-1.8-7.7-1.1
	s-7,0.8-8.5,0.1c0,0,4.4,0.6,6.7-0.1s3-1.2,4.9-0.6s5.9,1.6,8.2,0.7s3.5-2.2,3.7-2.8c-1,1.1-2.6,1.5-4,1c-2.3-1.1-3.2-2.5-3.7-2.5
	c1.3,0.1,2.6,0.1,3.9-0.1c1.7-0.4,3.6-1.1,3.6-2.9c0-1.4-0.5-2.8-1.4-3.9c0.3,1.6-0.4,3.3-1.8,4.2c-2.3,1.4-7,0.4-5.8-4.1
	c0,0,1-2.1,2.1-4.6s2.3-4.5,1.8-7.9s-0.9-3.9-0.9-3.9s2.8,1.2,3.8,2.9c1.4,2.1,1.3,4.9-0.2,6.9c1.5-0.7,2.6-2,3.2-3.5
	c0.8-2.5,0.3-3.5-1.1-5.2s-2.9-4.2-2.6-6.2s1.3-4.2,1.2-5.8s0.2-4.5-1.5-6.7s-3.9-4.4-3.9-4.4s3.7-0.2,4.7,1.3
	c-0.5-1.8-1.5-3.5-2.8-4.8c-1.5-1.6-3.5-2.7-5.7-3c-2.2-0.5-3.5-0.9-3.5-0.9s3.2-0.7,3.4-2c0.1-0.6,0.1-1.1,0-1.7c0,0-0.1,1-1.7,1.1
	s-3.8-1.3-4.9-2.7c-1.8-2.3-4.3-3.8-7.2-4.3c-3.8-0.5-6.6,0-7.6-1.1s-3.2-2.3-3.6-6.5c-1.2,1.6-1.9,3.5-2,5.5
	c-0.1,3.2-0.4,3.6,1.3,4.5c1.1,0.6,2.2,1,3.4,1.2c0,0-3.6-0.5-4.1,0.2c-1.5,1.8-3.3,3.4-5.2,4.7c-1.1,0.4-1.9,1.6-1.8,2.8
	c-0.2,1.3-0.9,2.5-2.1,3.2c-1.5,1-8.9,7.4-10.4,8.3s-2.5,0.7-2.6,2.3s-1.1,2.9-1.1,3.8s-0.3,1.2,0.6,1.6c1.3,0.6,2.5,1.4,3.5,2.3
	c0.9,0.9-0.5,1.3,2.2,1.4s4.3,1.2,5.2,0.5c1-0.9,1.8-1.9,2.4-3.1c1-1.6,5.5-4.4,6.1-4.7s1.8-0.3,3.5,0.3s2.5,1,3.8,0.6
	s5.6-1.8,7.1-2.1c0,0-4.2,1.9-4.1,2.7C325.6,37.6,325.7,37.9,325.8,38.2z"/>
</svg>
