<svg xmlns="http://www.w3.org/2000/svg" width="467" height="35" viewBox="0 0 126.47 9.49" shape-rendering="geometricPrecision" text-rendering="geometricPrecision" image-rendering="optimizeQuality" fill-rule="evenodd" clip-rule="evenodd"><path d="M0 .12h7.53v1.57H4.66v7.67H2.88V1.69H0V.12zm8.79 0h6.77v1.54h-5v2.29h4.48v1.54h-4.48V7.8h5.16v1.55H8.79V.12zm8.72 0h6.77v1.54h-5v2.29h4.48v1.54h-4.48V7.8h5.16v1.55H17.5V.12zm15.16 0h1.72v9.24H32.7L27.96 3v6.36h-1.73V.12h1.68l4.76 6.37V.12zm54.97 0h1.84l-3.13 9.24h-1.83L82.4 2.35l-2.15 7h-1.8L75.32.13h1.9l2.18 7.32L81.57.12h1.74l2.18 7.35L87.64.12zM94.66 0c.92 0 1.75.2 2.5.62a4.63 4.63 0 012.42 4.1 4.63 4.63 0 01-2.42 4.13c-.75.43-1.58.64-2.5.64-.91 0-1.75-.21-2.5-.64a4.7 4.7 0 010-8.23 5.11 5.11 0 012.5-.62zm.03 1.58a3.1 3.1 0 00-2.72 1.55c-.28.48-.42 1.01-.42 1.6a3.17 3.17 0 003.14 3.17 3.1 3.1 0 002.67-1.57c.28-.5.42-1.03.42-1.6a3.12 3.12 0 00-3.1-3.15zm12.23 7.78l-1.6-2.74-.33.02h-2.08v2.72h-1.77V.12H105c1.2 0 2.12.28 2.78.83.65.55.97 1.34.97 2.35 0 .72-.15 1.34-.47 1.85-.31.5-.76.89-1.36 1.14l2.03 3.06h-2.02zm-4.01-4.28h2.08c.67 0 1.18-.14 1.53-.43.36-.3.53-.73.53-1.3 0-.56-.17-.98-.53-1.26a2.4 2.4 0 00-1.53-.43h-2.08v3.42zm7.77-4.96h1.77v7.64h3.98v1.6h-5.75V.12zm10.98 0c.92 0 1.75.2 2.48.59.73.39 1.3.93 1.71 1.64.42.7.62 1.5.62 2.39a4.38 4.38 0 01-2.36 4.02c-.74.4-1.58.6-2.52.6h-3.77V.11h3.84zm.04 7.68a3 3 0 001.52-.4c.46-.25.81-.61 1.07-1.07.25-.47.38-.99.38-1.58a3.2 3.2 0 00-.4-1.59 2.81 2.81 0 00-1.09-1.1 3.12 3.12 0 00-1.55-.38h-2.04V7.8h2.1z" fill="#bdd61c" fill-rule="nonzero"/><path d="M36.66.12h2.02l3.06 5.95L44.77.12h2.02v9.24h-1.62V2.73l-2.88 5.68h-1.13l-2.9-5.68v6.63h-1.6V.12zm26.32 6.2V4.76h2.61v3.51a6.2 6.2 0 01-1.71.88c-.66.22-1.3.34-1.94.34a4.92 4.92 0 01-4.24-2.36 4.63 4.63 0 01-.64-2.4c0-.89.22-1.68.65-2.4a4.76 4.76 0 011.8-1.7C60.29.2 61.13 0 62.05 0a5.6 5.6 0 013.62 1.33l-1 1.3a3.8 3.8 0 00-2.62-1.05 3.2 3.2 0 00-2.75 1.56 3.1 3.1 0 00-.43 1.58 3.17 3.17 0 003.2 3.17 4.42 4.42 0 002-.58l-.01-1h-1.08zM49.05.12h6.77v1.54h-5v2.29h4.48v1.54h-4.48V7.8h5.16v1.55h-6.93V.12zm25.41 9.24l-.81-1.96h-4.52l-.82 1.95H66.5L70.54.13h1.83l4 9.24h-1.9zm-4.7-3.47h3.25L71.42 2l-1.64 3.88z" fill="#fff"/></svg>