<svg xmlns="http://www.w3.org/2000/svg" width="159" height="28" viewBox="0 0 14.93 2.59" shape-rendering="geometricPrecision" text-rendering="geometricPrecision" image-rendering="optimizeQuality" fill-rule="evenodd" clip-rule="evenodd"><defs><style>.fil0{fill:#c03ab8;fill-rule:nonzero}</style></defs><g id="Layer-214"><g id="_1067035872"><path class="fil0" d="M3.95 2.27c-.04 0-.07-.02-.09-.04-.03-.02-.04-.05-.04-.09 0-.01.01-.03.02-.05l.7-1.66c.01-.03.03-.06.06-.08.03-.02.06-.03.1-.03h.02c.04 0 .07.01.1.03.03.02.05.05.06.08l.7 1.66c.01.02.02.04.02.05 0 .04-.01.07-.04.09-.02.02-.05.04-.09.04-.02 0-.04-.01-.07-.02-.02-.02-.03-.04-.04-.06l-.18-.43h-.94l-.18.43a.21.21 0 01-.04.06c-.02.01-.05.02-.07.02zm.39-.74h.74L4.71.64l-.37.89z"/><path id="1" class="fil0" d="M6.13 2.27c-.04 0-.07-.02-.09-.04-.03-.02-.04-.05-.04-.09V.5c0-.05.02-.09.05-.13a.21.21 0 01.13-.05h.04c.05 0 .11.03.15.08l1.06 1.53V.45c0-.04.01-.07.03-.09.03-.03.05-.04.09-.04.03 0 .06.01.09.04.02.02.04.05.04.09v1.64c0 .05-.02.09-.06.12-.03.04-.08.06-.13.06h-.03c-.03 0-.06-.01-.08-.02a.17.17 0 01-.06-.06L6.25.66v1.48c0 .04-.01.07-.04.09-.02.02-.05.04-.08.04z"/><path id="2" class="fil0" d="M9.06 2.28c-.19 0-.36-.04-.51-.13a.856.856 0 01-.34-.34c-.08-.15-.12-.32-.12-.51 0-.2.05-.37.13-.52.08-.15.2-.27.34-.35.15-.08.31-.12.49-.12.14 0 .27.01.37.05.11.03.22.08.31.14.02.01.03.02.04.04.01.02.02.04.02.06 0 .03-.01.06-.03.08-.02.03-.05.04-.09.04-.02 0-.04-.01-.05-.02a1.12 1.12 0 00-.54-.15.79.79 0 00-.38.09c-.11.06-.2.14-.26.25a.78.78 0 00-.1.41c0 .14.03.27.09.38.06.11.15.2.26.27.11.06.25.09.4.09.17 0 .33-.04.48-.12v-.49h-.45c-.03 0-.06-.02-.08-.04a.114.114 0 01-.03-.08c0-.03.01-.06.03-.08.02-.02.05-.03.08-.03h.54c.04 0 .07.01.09.04.03.02.04.06.04.09v.63c0 .03-.01.07-.03.1-.02.03-.04.05-.07.07-.21.1-.42.15-.63.15z"/><path id="3" class="fil0" d="M10.41 2.25c-.03 0-.06-.01-.09-.03a.161.161 0 01-.03-.09V.46c0-.03.01-.06.03-.09.03-.02.06-.04.09-.04h1.1c.04 0 .07.02.09.04.02.02.03.05.03.08 0 .04-.01.06-.03.08-.02.03-.05.04-.09.04h-.97v.61h.88c.03 0 .06.01.08.03.02.02.03.05.03.08 0 .04-.01.06-.03.09-.02.02-.05.03-.08.03h-.88v.61h.97c.04 0 .07.01.09.03.02.03.03.05.03.09 0 .03-.01.06-.03.08-.02.02-.05.03-.09.03h-1.1z"/><path id="4" class="fil0" d="M12.22 2.25c-.05 0-.09-.01-.13-.05a.166.166 0 01-.05-.12V.45c0-.04.01-.07.04-.09.02-.03.05-.04.09-.04.03 0 .06.01.09.04.02.02.03.05.03.09V2h.9c.04 0 .07.01.09.04.03.02.04.05.04.09 0 .03-.01.06-.04.09-.02.02-.05.03-.09.03h-.97z"/><path id="5" class="fil0" d="M14.23 2.28c-.23 0-.45-.04-.65-.13-.03-.01-.04-.03-.06-.05-.01-.02-.02-.04-.02-.06 0-.04.01-.06.03-.09.02-.02.05-.03.08-.03.02 0 .04 0 .05.01.17.08.35.11.55.11.32 0 .48-.1.48-.31 0-.06-.02-.1-.07-.14a.377.377 0 00-.15-.09c-.06-.02-.14-.04-.26-.07-.14-.04-.26-.08-.36-.11a.634.634 0 01-.23-.16.41.41 0 01-.1-.29c0-.1.03-.2.08-.28.06-.09.14-.16.24-.21.11-.05.24-.07.39-.07.2 0 .38.03.55.09.05.02.07.05.07.11 0 .03-.01.05-.03.08-.02.02-.04.03-.08.03-.01 0-.02 0-.04-.01-.14-.05-.29-.07-.44-.07-.15 0-.27.03-.36.08-.09.05-.13.13-.13.23 0 .07.02.12.06.16.05.04.1.07.16.1.07.02.16.04.27.07.14.04.26.07.35.11.09.03.17.08.23.16.06.07.09.17.09.29 0 .11-.03.2-.08.28-.06.08-.15.15-.25.19-.11.05-.23.07-.37.07z"/><path d="M1.62 1.07l.71 1.06c.12.17.21.28.26.32.05.04.11.06.18.07v.07H1.5v-.07c.1-.01.17-.02.2-.05a.09.09 0 00.04-.08c0-.02 0-.04-.01-.06-.02-.04-.06-.11-.14-.22l-.37-.55-.4.48c-.11.14-.17.24-.17.3 0 .03.01.07.04.1s.08.05.14.07c.03.01.08.01.16.01v.07H0v-.07c.11-.02.2-.05.27-.09.08-.06.2-.18.35-.37l.52-.62L.48.47A2.41 2.41 0 00.29.2C.26.15.23.12.19.11.16.09.11.08.06.07V0h1.28v.07h-.07c-.07 0-.12.01-.15.03-.03.03-.05.06-.05.09s.01.05.02.07l.13.2.32.48.27-.32c.14-.17.21-.29.21-.36 0-.04-.01-.07-.03-.1A.218.218 0 001.9.09C1.87.07 1.81.07 1.73.07V0h.95v.07c-.07 0-.13.01-.18.02-.04.02-.09.05-.14.1-.04.03-.12.13-.25.29l-.49.59z" fill="#ffb800" fill-rule="nonzero"/><path fill="#fff" d="M2.61 1.12h.76v.27h-.76z"/></g></g></svg>