<svg xmlns="http://www.w3.org/2000/svg" width="173" height="29" viewBox="0 0 16.65 2.78" shape-rendering="geometricPrecision" text-rendering="geometricPrecision" image-rendering="optimizeQuality" fill-rule="evenodd" clip-rule="evenodd"><defs><style>.fil0,.fil2{fill-rule:nonzero}.fil2{fill:#f0135f}.fil0{fill:#fff}</style></defs><g id="Layer-214"><g id="_1872640688"><path class="fil0" d="M.13 2.39c-.04 0-.07-.01-.09-.03A.122.122 0 010 2.27V.53C0 .5.01.47.04.44.06.42.09.4.13.4h1.1c.03 0 .06.02.08.04.03.02.04.05.04.09 0 .03-.01.06-.04.08-.02.02-.05.03-.08.03H.26v.63h.87c.03 0 .06.01.08.04.03.02.04.05.04.08 0 .04-.01.06-.04.09-.02.02-.05.03-.08.03H.26v.76c0 .03-.02.06-.04.09-.03.02-.06.03-.09.03z"/><path id="1" class="fil0" d="M1.85 2.39c-.04 0-.07-.01-.09-.03a.122.122 0 01-.04-.09V.52c0-.04.01-.07.04-.09.02-.03.05-.04.09-.04.03 0 .06.01.09.04.02.02.04.05.04.09v1.75c0 .03-.02.06-.04.09-.03.02-.06.03-.09.03z"/><path id="2" class="fil0" d="M2.65 2.39c-.03 0-.06-.01-.09-.03a.161.161 0 01-.03-.09V.53c0-.03.01-.06.03-.09.03-.02.06-.04.09-.04h.66c.26 0 .45.06.58.16.13.11.19.25.19.42 0 .11-.03.21-.09.31-.07.09-.16.16-.28.2.14.04.23.12.28.25.05.14.07.27.07.4v.13c0 .03-.01.06-.03.09-.03.02-.06.03-.09.03-.04 0-.07-.01-.1-.03a.161.161 0 01-.03-.09v-.09c0-.09-.01-.18-.03-.26a.532.532 0 00-.12-.22c-.06-.06-.16-.09-.29-.09h-.59v.66c0 .03-.01.06-.03.09-.03.02-.06.03-.1.03zm.65-1.02c.16 0 .29-.04.38-.1.1-.06.14-.15.14-.27 0-.12-.04-.2-.12-.26-.08-.06-.22-.09-.42-.09h-.5v.72h.52z"/><path id="3" class="fil0" d="M5.16 2.41c-.24 0-.46-.05-.67-.14-.02-.01-.04-.02-.06-.05a.145.145 0 01-.02-.07c0-.03.01-.05.03-.08.02-.02.05-.03.09-.03.01 0 .03 0 .05.01.17.07.36.11.56.11.33 0 .49-.1.49-.32 0-.06-.02-.11-.06-.14a.417.417 0 00-.16-.09c-.06-.02-.15-.05-.26-.08-.16-.04-.28-.08-.38-.11a.807.807 0 01-.24-.17c-.07-.07-.1-.17-.1-.29 0-.11.03-.21.08-.3.06-.08.14-.15.25-.21.11-.05.25-.07.4-.07.21 0 .4.03.56.09.06.02.08.06.08.11 0 .03-.01.06-.03.08a.09.09 0 01-.08.04c-.01 0-.03 0-.04-.01-.15-.05-.3-.08-.46-.08a.64.64 0 00-.36.09c-.1.05-.14.13-.14.24 0 .06.02.12.06.16.05.04.1.08.17.1.07.02.16.05.27.08.15.03.27.07.36.1.1.04.17.09.24.17.06.08.1.18.1.31 0 .1-.03.2-.09.28a.67.67 0 01-.26.2c-.11.04-.23.07-.38.07z"/><path id="4" class="fil0" d="M6.76 2.39c-.03 0-.06-.01-.09-.03a.161.161 0 01-.03-.09V.64h-.58a.14.14 0 01-.09-.03.114.114 0 01-.03-.08c0-.04.01-.07.03-.09C6 .42 6.02.4 6.06.4h1.41c.03 0 .06.02.08.04.03.02.04.05.04.09 0 .03-.01.06-.04.08-.02.02-.05.03-.08.03h-.58v1.63c0 .03-.01.06-.04.09-.02.02-.05.03-.09.03z"/><path d="M9.55 1.31c.25.06.43.13.54.21.14.12.22.28.22.47 0 .2-.08.36-.25.49-.19.16-.48.24-.86.24H7.85v-.07c.13 0 .21-.01.25-.03.05-.02.08-.05.09-.09.02-.04.03-.13.03-.27V.53c0-.15-.01-.24-.03-.28C8.18.21 8.15.18 8.1.16a.687.687 0 00-.25-.03V.06h1.28c.3 0 .52.03.65.08.12.06.22.14.3.24.07.11.11.23.11.35 0 .13-.05.24-.14.34-.1.1-.26.18-.5.24zm-.71-.05c.18 0 .32-.02.41-.07.09-.04.16-.1.21-.17.04-.08.07-.18.07-.29a.59.59 0 00-.07-.29.47.47 0 00-.2-.17C9.17.23 9.03.21 8.84.21v1.05zm0 .15v.95c0 .07.01.12.05.16.03.04.09.05.16.05.1 0 .19-.02.28-.07a.43.43 0 00.2-.2c.05-.08.07-.18.07-.29a.7.7 0 00-.08-.33.429.429 0 00-.23-.21c-.1-.04-.25-.06-.45-.06z" fill="#0cf" fill-rule="nonzero"/><path id="1" class="fil2" d="M13.22 0v.94h-.07c-.09-.26-.22-.45-.4-.58a.864.864 0 00-.57-.2c-.2 0-.37.05-.5.16-.13.12-.22.27-.28.47-.05.2-.08.41-.08.62 0 .25.03.47.09.67.06.19.16.33.29.42.13.09.29.13.48.13.06 0 .13 0 .19-.02a.83.83 0 00.21-.06V2c0-.1-.01-.17-.02-.2a.382.382 0 00-.09-.09c-.05-.02-.1-.04-.16-.04h-.07v-.06h1.29v.06c-.1.01-.17.02-.21.05-.03.02-.06.05-.08.1-.02.02-.02.09-.02.18v.55c-.17.08-.35.14-.53.18-.19.03-.38.05-.57.05-.26 0-.47-.03-.63-.1-.17-.07-.32-.16-.44-.27-.13-.11-.23-.24-.3-.38-.09-.18-.14-.38-.14-.6 0-.4.14-.74.42-1.02.28-.27.64-.41 1.07-.41.13 0 .25.01.35.03.06.01.15.04.28.09.13.05.21.07.23.07.04 0 .07-.01.1-.04.03-.02.06-.08.09-.15h.07z"/><path id="2" class="fil2" d="M16.34 0v.94h-.07a1.13 1.13 0 00-.39-.58.909.909 0 00-.58-.2c-.2 0-.36.05-.49.16-.14.12-.23.27-.29.47-.05.2-.08.41-.08.62 0 .25.03.47.09.67.06.19.16.33.29.42.14.09.29.13.48.13.06 0 .13 0 .2-.02.06-.01.13-.03.2-.06V2c0-.1 0-.17-.02-.2-.01-.03-.04-.06-.09-.09a.377.377 0 00-.16-.04h-.07v-.06h1.29v.06c-.09.01-.16.02-.2.05-.04.02-.07.05-.09.1-.01.02-.02.09-.02.18v.55c-.17.08-.35.14-.53.18-.18.03-.37.05-.57.05-.25 0-.46-.03-.63-.1-.16-.07-.31-.16-.44-.27-.13-.11-.23-.24-.3-.38a1.398 1.398 0 01.29-1.62c.28-.27.63-.41 1.06-.41.13 0 .25.01.36.03.05.01.15.04.28.09.12.05.2.07.22.07.04 0 .07-.01.11-.04.03-.02.06-.08.08-.15h.07z"/></g></g></svg>