<?xml version="1.0" encoding="utf-8"?>
<!-- Generator: Adobe Illustrator 21.0.0, SVG Export Plug-In . SVG Version: 6.00 Build 0)  -->
<svg version="1.1" id="Layer_1" xmlns="http://www.w3.org/2000/svg" xmlns:xlink="http://www.w3.org/1999/xlink" x="0px" y="0px"
	 viewBox="0 0 315 42" style="enable-background:new 0 0 315 42;" xml:space="preserve">
<style type="text/css">
	.st0{fill:url(#SVGID_1_);}
	.st1{fill:url(#SVGID_2_);}
	.st2{fill:url(#SVGID_3_);}
	.st3{fill:url(#SVGID_4_);}
	.st4{fill:url(#SVGID_5_);}
	.st5{fill:url(#SVGID_6_);}
	.st6{fill:url(#SVGID_7_);}
	.st7{fill:url(#SVGID_8_);}
	.st8{fill:url(#SVGID_9_);}
	.st9{fill:url(#SVGID_10_);}
	.st10{fill:url(#SVGID_11_);}
	.st11{fill:url(#SVGID_12_);}
	.st12{fill:url(#SVGID_13_);}
	.st13{fill:url(#SVGID_14_);}
	.st14{fill:#9FA1A4;}
	.st15{fill:url(#SVGID_15_);}
	.st16{fill:url(#SVGID_16_);}
	.st17{fill:url(#SVGID_17_);}
	.st18{fill:url(#SVGID_18_);}
	.st19{fill:url(#SVGID_19_);}
	.st20{fill:url(#SVGID_20_);}
	.st21{fill:url(#SVGID_21_);}
	.st22{fill:url(#SVGID_22_);}
	.st23{fill:url(#SVGID_23_);}
	.st24{fill:url(#SVGID_24_);}
	.st25{fill:url(#SVGID_25_);}
	.st26{fill:url(#SVGID_26_);}
	.st27{fill:url(#SVGID_27_);}
	.st28{fill:url(#SVGID_28_);}
	.st29{fill:url(#SVGID_29_);}
</style>
<linearGradient id="SVGID_1_" gradientUnits="userSpaceOnUse" x1="44.086" y1="37.6576" x2="44.086" y2="30.948">
	<stop  offset="0" style="stop-color:#FF6EAF"/>
	<stop  offset="1" style="stop-color:#FF86C5"/>
</linearGradient>
<path class="st0" d="M39.8,30.5h6.2c1.8,0,2.1,1.1,2.1,1.8c0,0.7-0.4,1.3-0.9,1.5v0c0.8,0.2,1.3,0.8,1.3,1.9c0,0.9-0.4,2.2-2.7,2.2
	h-6V30.5z M42.2,33.4h2.5c0.5,0,0.8-0.3,0.8-0.6c0-0.3-0.2-0.6-0.8-0.6h-2.5V33.4z M44.9,36.4c0.5,0,0.9-0.3,0.9-0.8
	c0-0.5-0.3-0.7-0.9-0.7h-2.7v1.5L44.9,36.4L44.9,36.4z"/>
<linearGradient id="SVGID_2_" gradientUnits="userSpaceOnUse" x1="53.2945" y1="37.6576" x2="53.2945" y2="30.948">
	<stop  offset="0" style="stop-color:#FF6EAF"/>
	<stop  offset="1" style="stop-color:#FF86C5"/>
</linearGradient>
<path class="st1" d="M51.8,30.5h3L58,38h-2.7l-0.4-1.2h-3.3L51.2,38h-2.7L51.8,30.5z M53.3,32.4L53.3,32.4l-1.1,2.8h2.1L53.3,32.4z"
	/>
<linearGradient id="SVGID_3_" gradientUnits="userSpaceOnUse" x1="62.8025" y1="37.6576" x2="62.8025" y2="30.948">
	<stop  offset="0" style="stop-color:#FF6EAF"/>
	<stop  offset="1" style="stop-color:#FF86C5"/>
</linearGradient>
<path class="st2" d="M58.5,30.5h6c1.8,0,2.5,0.8,2.5,2.1c0,1-0.5,1.5-1.2,1.7v0c0.5,0.2,0.8,0.5,0.9,1.3c0.1,1.5,0.2,1.9,0.5,2.3
	h-2.7c-0.1-0.3-0.1-0.8-0.1-1.1c0-1.2-0.4-1.4-1-1.4H61V38h-2.5L58.5,30.5L58.5,30.5z M61,33.8h2.4c0.6,0,0.9-0.3,0.9-0.8
	c0-0.5-0.3-0.8-0.9-0.8H61V33.8z"/>
<linearGradient id="SVGID_4_" gradientUnits="userSpaceOnUse" x1="71.87" y1="37.6576" x2="71.87" y2="30.948">
	<stop  offset="0" style="stop-color:#FF6EAF"/>
	<stop  offset="1" style="stop-color:#FF86C5"/>
</linearGradient>
<path class="st3" d="M68.1,30.5h7.5v1.6h-5v1.3h4.7V35h-4.7v1.3h5V38h-7.5V30.5z"/>
<linearGradient id="SVGID_5_" gradientUnits="userSpaceOnUse" x1="80.148" y1="37.6576" x2="80.148" y2="30.948">
	<stop  offset="0" style="stop-color:#FF6EAF"/>
	<stop  offset="1" style="stop-color:#FF86C5"/>
</linearGradient>
<path class="st4" d="M76.6,30.5h2.5v5.7h4.5V38h-7L76.6,30.5L76.6,30.5z"/>
<linearGradient id="SVGID_6_" gradientUnits="userSpaceOnUse" x1="86.388" y1="37.6576" x2="86.388" y2="30.948">
	<stop  offset="0" style="stop-color:#FF6EAF"/>
	<stop  offset="1" style="stop-color:#FF86C5"/>
</linearGradient>
<path class="st5" d="M85.1,35.6l-3.3-5.1h2.9l1.7,3.2l1.7-3.2h2.9l-3.3,5.1V38h-2.5L85.1,35.6L85.1,35.6z"/>
<linearGradient id="SVGID_7_" gradientUnits="userSpaceOnUse" x1="98.938" y1="37.6576" x2="98.938" y2="30.948">
	<stop  offset="0" style="stop-color:#FF6EAF"/>
	<stop  offset="1" style="stop-color:#FF86C5"/>
</linearGradient>
<path class="st6" d="M95.4,30.5h2.5v5.7h4.5V38h-7L95.4,30.5L95.4,30.5z"/>
<linearGradient id="SVGID_8_" gradientUnits="userSpaceOnUse" x1="107.082" y1="37.6576" x2="107.082" y2="30.948">
	<stop  offset="0" style="stop-color:#FF6EAF"/>
	<stop  offset="1" style="stop-color:#FF86C5"/>
</linearGradient>
<path class="st7" d="M103.4,30.5h7.5v1.6h-5v1.3h4.7V35h-4.7v1.3h5V38h-7.5V30.5z"/>
<linearGradient id="SVGID_9_" gradientUnits="userSpaceOnUse" x1="116.143" y1="37.6576" x2="116.143" y2="30.948">
	<stop  offset="0" style="stop-color:#FF6EAF"/>
	<stop  offset="1" style="stop-color:#FF86C5"/>
</linearGradient>
<path class="st8" d="M116.8,33.8h4V38h-1.2l-0.3-0.8c-0.3,0.4-1.3,1-3.2,1c-3.3,0-4.7-1.4-4.7-4c0-2.2,1.4-4,4.7-4
	c2,0,4.4,0.5,4.7,2.7H118c-0.2-0.6-0.6-1.1-1.8-1.1c-1.5,0-2.2,1-2.2,2.4c0,1.3,0.7,2.3,2.2,2.3c1.2,0,1.9-0.5,2.1-1.3h-1.5
	C116.8,35.3,116.8,33.8,116.8,33.8z"/>
<linearGradient id="SVGID_10_" gradientUnits="userSpaceOnUse" x1="125.971" y1="37.6576" x2="125.971" y2="30.948">
	<stop  offset="0" style="stop-color:#FF6EAF"/>
	<stop  offset="1" style="stop-color:#FF86C5"/>
</linearGradient>
<path class="st9" d="M124.5,30.5h3l3.2,7.4H128l-0.4-1.2h-3.3l-0.4,1.2h-2.7L124.5,30.5z M126,32.4L126,32.4l-1.1,2.8h2.1L126,32.4z
	"/>
<linearGradient id="SVGID_11_" gradientUnits="userSpaceOnUse" x1="134.672" y1="37.6576" x2="134.672" y2="30.948">
	<stop  offset="0" style="stop-color:#FF6EAF"/>
	<stop  offset="1" style="stop-color:#FF86C5"/>
</linearGradient>
<path class="st10" d="M131.2,30.5h2.5v5.7h4.5V38h-7L131.2,30.5L131.2,30.5z"/>
<linearGradient id="SVGID_12_" gradientUnits="userSpaceOnUse" x1="146.8255" y1="37.6576" x2="146.8255" y2="30.948">
	<stop  offset="0" style="stop-color:#FF6EAF"/>
	<stop  offset="1" style="stop-color:#FF86C5"/>
</linearGradient>
<path class="st11" d="M145.3,30.5h3l3.2,7.4h-2.7l-0.4-1.2h-3.3l-0.4,1.2h-2.7L145.3,30.5z M146.8,32.4L146.8,32.4l-1.1,2.8h2.1
	L146.8,32.4z"/>
<linearGradient id="SVGID_13_" gradientUnits="userSpaceOnUse" x1="156.381" y1="37.6576" x2="156.381" y2="30.948">
	<stop  offset="0" style="stop-color:#FF6EAF"/>
	<stop  offset="1" style="stop-color:#FF86C5"/>
</linearGradient>
<path class="st12" d="M152,30.5h2.9l3.4,4.7h0v-4.7h2.4V38H158l-3.6-4.7h0V38H152V30.5z"/>
<linearGradient id="SVGID_14_" gradientUnits="userSpaceOnUse" x1="166.709" y1="37.6576" x2="166.709" y2="30.948">
	<stop  offset="0" style="stop-color:#FF6EAF"/>
	<stop  offset="1" style="stop-color:#FF86C5"/>
</linearGradient>
<path class="st13" d="M162.2,30.5h5.4c2.3,0,3.5,1.2,3.5,3.7c0,2.9-1.7,3.7-3.9,3.7h-5.1L162.2,30.5L162.2,30.5z M164.7,36.3h2.1
	c1.4,0,1.8-1,1.8-2.1c0-1.4-0.7-2-2-2h-1.9L164.7,36.3L164.7,36.3z"/>
<g>
	<path class="st14" d="M176.3,30.5h6c1.8,0,2.5,0.8,2.5,2.1c0,1-0.5,1.5-1.2,1.7v0c0.5,0.2,0.8,0.5,0.9,1.3c0.1,1.5,0.2,1.9,0.5,2.3
		h-2.7c-0.1-0.3-0.1-0.8-0.1-1.1c0-1.2-0.4-1.4-1-1.4h-2.3V38h-2.5L176.3,30.5L176.3,30.5z M178.8,33.8h2.4c0.6,0,0.9-0.3,0.9-0.8
		c0-0.5-0.3-0.8-0.9-0.8h-2.4V33.8z"/>
	<path class="st14" d="M186,30.5h7.5v1.6h-5v1.3h4.7V35h-4.7v1.3h5V38H186V30.5z"/>
	<path class="st14" d="M196.7,30.5h3l3.2,7.4h-2.7l-0.4-1.2h-3.3l-0.4,1.2h-2.7L196.7,30.5z M198.2,32.4L198.2,32.4l-1.1,2.8h2.1
		L198.2,32.4z"/>
	<path class="st14" d="M203.4,30.5h5.4c2.3,0,3.5,1.2,3.5,3.7c0,2.9-1.7,3.7-3.9,3.7h-5.1L203.4,30.5L203.4,30.5z M205.9,36.3h2.1
		c1.4,0,1.8-1,1.8-2.1c0-1.4-0.7-2-2-2h-1.9L205.9,36.3L205.9,36.3z"/>
	<path class="st14" d="M215.7,35.6l-3.3-5.1h2.9l1.7,3.2l1.7-3.2h2.9l-3.3,5.1V38h-2.5L215.7,35.6L215.7,35.6z"/>
	<path class="st14" d="M225.2,30.5h7.9v1.7h-2.7V38h-2.5v-5.8h-2.7L225.2,30.5L225.2,30.5z"/>
	<path class="st14" d="M238.3,30.3c2.6,0,4.8,0.9,4.8,4s-2.2,4-4.8,4s-4.8-0.9-4.8-4S235.7,30.3,238.3,30.3z M238.3,36.5
		c1.3,0,2.2-0.7,2.2-2.3c0-1.6-0.9-2.3-2.2-2.3c-1.3,0-2.2,0.7-2.2,2.3C236.1,35.8,237,36.5,238.3,36.5z"/>
	<path class="st14" d="M248.3,30.5h7.1v1.7h-4.6v1.3h4.3v1.6h-4.3V38h-2.5L248.3,30.5L248.3,30.5z"/>
	<path class="st14" d="M256.2,30.5h2.5v4.4c0,1.2,0.6,1.6,1.7,1.6s1.7-0.4,1.7-1.6v-4.4h2.5v4.8c0,2.1-1.5,2.9-4.2,2.9
		s-4.2-0.8-4.2-2.9L256.2,30.5L256.2,30.5z"/>
	<path class="st14" d="M274.9,35.1c-0.3,1.6-1.2,3.1-4.7,3.1c-3.2,0-4.7-1.4-4.7-4c0-2.5,1.4-4,4.7-4c2.3,0,4.1,0.5,4.7,3.1h-2.8
		c-0.1-0.5-0.5-1.4-1.9-1.4c-1.6,0-2.1,1.1-2.1,2.3s0.5,2.3,2.1,2.3c1.1,0,1.8-0.6,1.9-1.4H274.9z"/>
	<path class="st14" d="M276,30.5h2.5v2.9l3.1-2.9h3.3l-3.4,2.9l3.6,4.5h-3.3l-2.3-3l-1.1,0.9V38H276L276,30.5L276,30.5z"/>
</g>
<g>
	<rect x="1.4" y="27.7" class="st14" width="313.4" height="1"/>
</g>
<g>
	
		<linearGradient id="SVGID_15_" gradientUnits="userSpaceOnUse" x1="100.487" y1="17.2725" x2="100.487" y2="35.1928" gradientTransform="matrix(1 0 0 -1 0 42)">
		<stop  offset="0" style="stop-color:#FF6EAF"/>
		<stop  offset="1" style="stop-color:#FF86C5"/>
	</linearGradient>
	<path class="st15" d="M91,6.8H110v4h-6.5v13.8h-5.9V10.8H91C91,10.8,91,6.8,91,6.8z"/>
	
		<linearGradient id="SVGID_16_" gradientUnits="userSpaceOnUse" x1="120.346" y1="17.2725" x2="120.346" y2="35.1928" gradientTransform="matrix(1 0 0 -1 0 42)">
		<stop  offset="0" style="stop-color:#FF6EAF"/>
		<stop  offset="1" style="stop-color:#FF86C5"/>
	</linearGradient>
	<path class="st16" d="M111.5,6.8h17.8v3.8h-11.9v3.2h11.1v3.7h-11.1v3.2h11.9v3.8h-17.8V6.8z"/>
	
		<linearGradient id="SVGID_17_" gradientUnits="userSpaceOnUse" x1="140.3415" y1="17.2725" x2="140.3415" y2="35.1928" gradientTransform="matrix(1 0 0 -1 0 42)">
		<stop  offset="0" style="stop-color:#FF6EAF"/>
		<stop  offset="1" style="stop-color:#FF86C5"/>
	</linearGradient>
	<path class="st17" d="M131.5,6.8h17.8v3.8h-11.9v3.2h11.1v3.7h-11.1v3.2h11.9v3.8h-17.8V6.8z"/>
	
		<linearGradient id="SVGID_18_" gradientUnits="userSpaceOnUse" x1="161.8535" y1="17.2725" x2="161.8535" y2="35.1928" gradientTransform="matrix(1 0 0 -1 0 42)">
		<stop  offset="0" style="stop-color:#FF6EAF"/>
		<stop  offset="1" style="stop-color:#FF86C5"/>
	</linearGradient>
	<path class="st18" d="M151.5,6.8h6.8l8.2,11.1h0.1V6.8h5.7v17.7h-6.5l-8.5-11.2h-0.1v11.2h-5.7L151.5,6.8L151.5,6.8z"/>
</g>
<g>
	
		<linearGradient id="SVGID_19_" gradientUnits="userSpaceOnUse" x1="184.61" y1="6.0942" x2="184.61" y2="24.7399" gradientTransform="matrix(1 0 0 -1 0 42)">
		<stop  offset="0" style="stop-color:#606060"/>
		<stop  offset="1" style="stop-color:#A8A8A8"/>
	</linearGradient>
	<path class="st19" d="M175.7,6.8h17.8v3.8h-11.9v3.2h11.1v3.7h-11.1v3.2h11.9v3.8h-17.8V6.8z"/>
	
		<linearGradient id="SVGID_20_" gradientUnits="userSpaceOnUse" x1="206.0095" y1="6.0942" x2="206.0095" y2="24.7399" gradientTransform="matrix(1 0 0 -1 0 42)">
		<stop  offset="0" style="stop-color:#606060"/>
		<stop  offset="1" style="stop-color:#A8A8A8"/>
	</linearGradient>
	<path class="st20" d="M195.7,6.8h14.2c4.4,0,5.9,2,5.9,4.9c0,2.4-1.2,3.7-2.8,4.1v0.1c1.1,0.4,2,1.3,2.1,3.2
		c0.3,3.5,0.4,4.6,1.1,5.5h-6.5c-0.3-0.8-0.3-1.8-0.3-2.6c0-2.8-0.9-3.3-2.4-3.3h-5.4v5.9h-5.9V6.8z M201.6,14.7h5.7
		c1.5,0,2.2-0.7,2.2-2c0-1.2-0.7-1.9-2.2-1.9h-5.7V14.7z"/>
	
		<linearGradient id="SVGID_21_" gradientUnits="userSpaceOnUse" x1="229.109" y1="6.0942" x2="229.109" y2="24.7399" gradientTransform="matrix(1 0 0 -1 0 42)">
		<stop  offset="0" style="stop-color:#606060"/>
		<stop  offset="1" style="stop-color:#A8A8A8"/>
	</linearGradient>
	<path class="st21" d="M229.1,6.3c6.3,0,11.6,2.1,11.6,9.4c0,7.4-5.3,9.4-11.6,9.4s-11.6-2.1-11.6-9.4
		C217.6,8.3,222.8,6.3,229.1,6.3z M229.1,21.1c3.2,0,5.3-1.7,5.3-5.4c0-3.7-2.1-5.4-5.3-5.4c-3.2,0-5.3,1.8-5.3,5.4
		C223.8,19.4,226,21.1,229.1,21.1z"/>
	
		<linearGradient id="SVGID_22_" gradientUnits="userSpaceOnUse" x1="250.7195" y1="6.0942" x2="250.7195" y2="24.7399" gradientTransform="matrix(1 0 0 -1 0 42)">
		<stop  offset="0" style="stop-color:#606060"/>
		<stop  offset="1" style="stop-color:#A8A8A8"/>
	</linearGradient>
	<path class="st22" d="M241.3,6.8h18.9v4h-6.5v13.8h-5.9V10.8h-6.5L241.3,6.8L241.3,6.8z"/>
	
		<linearGradient id="SVGID_23_" gradientUnits="userSpaceOnUse" x1="264.728" y1="6.0942" x2="264.728" y2="24.7399" gradientTransform="matrix(1 0 0 -1 0 42)">
		<stop  offset="0" style="stop-color:#606060"/>
		<stop  offset="1" style="stop-color:#A8A8A8"/>
	</linearGradient>
	<path class="st23" d="M261.8,6.8h5.9v17.7h-5.9V6.8z"/>
	
		<linearGradient id="SVGID_24_" gradientUnits="userSpaceOnUse" x1="281.3595" y1="6.0942" x2="281.3595" y2="24.7399" gradientTransform="matrix(1 0 0 -1 0 42)">
		<stop  offset="0" style="stop-color:#606060"/>
		<stop  offset="1" style="stop-color:#A8A8A8"/>
	</linearGradient>
	<path class="st24" d="M292.6,17.7c-0.7,3.9-2.8,7.4-11.2,7.4c-7.5,0-11.2-3.3-11.2-9.4c0-5.9,3.5-9.4,11.2-9.4
		c5.4,0,9.9,1.2,11.2,7.4h-6.6c-0.3-1.3-1.2-3.4-4.6-3.4c-3.7,0-4.9,2.5-4.9,5.4c0,2.9,1.1,5.4,4.9,5.4c2.7,0,4.2-1.3,4.6-3.4
		L292.6,17.7L292.6,17.7z"/>
	
		<linearGradient id="SVGID_25_" gradientUnits="userSpaceOnUse" x1="303.5535" y1="6.0942" x2="303.5535" y2="24.7399" gradientTransform="matrix(1 0 0 -1 0 42)">
		<stop  offset="0" style="stop-color:#606060"/>
		<stop  offset="1" style="stop-color:#A8A8A8"/>
	</linearGradient>
	<path class="st25" d="M300,6.8h7.2l7.6,17.7h-6.3l-1.1-2.9h-7.8l-1.1,2.9h-6.3L300,6.8z M303.6,11.3L303.6,11.3l-2.5,6.7h5
		L303.6,11.3z"/>
</g>
<g>
	
		<linearGradient id="SVGID_26_" gradientUnits="userSpaceOnUse" x1="10.287" y1="6.3735" x2="10.287" y2="23.6915" gradientTransform="matrix(1 0 0 -1 0 42)">
		<stop  offset="0" style="stop-color:#606060"/>
		<stop  offset="1" style="stop-color:#A8A8A8"/>
	</linearGradient>
	<path class="st26" d="M1.4,6.3h17.8v3.8H7.3v3.2h11.1V17H7.3v3.2h11.9V24H1.4V6.3z"/>
	
		<linearGradient id="SVGID_27_" gradientUnits="userSpaceOnUse" x1="31.115" y1="6.3735" x2="31.115" y2="23.6915" gradientTransform="matrix(1 0 0 -1 0 42)">
		<stop  offset="0" style="stop-color:#606060"/>
		<stop  offset="1" style="stop-color:#A8A8A8"/>
	</linearGradient>
	<path class="st27" d="M21.2,6.3h5.9v10.5c0,2.9,1.3,3.8,4.1,3.8s4-0.9,4-3.8V6.3h5.9v11.5c0,4.9-3.7,6.8-10,6.8s-10-1.9-10-6.8V6.3
		z"/>
	
		<linearGradient id="SVGID_28_" gradientUnits="userSpaceOnUse" x1="54.439" y1="6.3735" x2="54.439" y2="23.6915" gradientTransform="matrix(1 0 0 -1 0 42)">
		<stop  offset="0" style="stop-color:#606060"/>
		<stop  offset="1" style="stop-color:#A8A8A8"/>
	</linearGradient>
	<path class="st28" d="M44.2,6.3h14.2c4.4,0,5.9,2,5.9,4.9c0,2.4-1.2,3.7-2.8,4.1v0c1.1,0.4,2,1.3,2.1,3.2c0.3,3.5,0.4,4.6,1.1,5.5
		h-6.5c-0.3-0.8-0.3-1.8-0.3-2.6c0-2.8-0.9-3.3-2.4-3.3h-5.4V24h-5.9L44.2,6.3L44.2,6.3z M50.1,14.1h5.7c1.5,0,2.2-0.7,2.2-2
		c0-1.2-0.7-1.9-2.2-1.9h-5.7V14.1z"/>
	
		<linearGradient id="SVGID_29_" gradientUnits="userSpaceOnUse" x1="77.541" y1="6.3735" x2="77.541" y2="23.6915" gradientTransform="matrix(1 0 0 -1 0 42)">
		<stop  offset="0" style="stop-color:#606060"/>
		<stop  offset="1" style="stop-color:#A8A8A8"/>
	</linearGradient>
	<path class="st29" d="M77.5,5.7c6.3,0,11.6,2.1,11.6,9.4c0,7.4-5.3,9.4-11.6,9.4S66,22.5,66,15.2C66,7.8,71.3,5.7,77.5,5.7z
		 M77.5,20.6c3.2,0,5.3-1.7,5.3-5.4c0-3.7-2.1-5.4-5.3-5.4c-3.2,0-5.3,1.8-5.3,5.4C72.2,18.9,74.4,20.6,77.5,20.6z"/>
</g>
</svg>
